<svg width="725" height="648" viewBox="0 0 725 648" fill="none" xmlns="http://www.w3.org/2000/svg">
<path d="M725 128.6C725 130.4 725 132.2 725 133.9C724.8 134 724.5 134.1 724.5 134.3C724.3 136.4 723.8 138.4 723.3 140.5C720.5 151.5 716.5 162.1 711.6 172.3C709.4 176.8 707 181.2 704.6 185.5C703.9 186.8 702.9 187.4 701.5 187.7C699.9 188 698.2 188.3 696.6 188.7C696.1 188.8 695.6 189.1 695 189.2C694.7 189.3 694.7 189.5 694.7 189.7C694.9 190.2 695 190.8 695.3 191.3C695.9 192.8 696.6 194.4 697.3 195.9C697.5 196.3 697.4 196.6 697.2 196.8C697 197.2 696.7 197.6 696.5 197.9C692.4 203.8 687.9 209.5 683.2 214.9C682.2 216.1 681.8 215.9 680.6 215.4C679.7 215 678.8 214.6 677.9 214.2C677.6 214.1 677.3 213.9 677 213.9C676.8 213.9 676.6 213.9 676.4 214C676.3 214.1 676.2 214.4 676.3 214.6C676.7 216.3 677.2 218 677.6 219.8C677.8 220.5 677.7 221.1 677.1 221.6C674.5 224.2 671.9 226.7 669.3 229.3C668.6 230 667.8 230.6 667.1 231.3C666.7 231.7 666.4 232.2 666.5 232.8C666.5 233.2 666.5 233.7 666.5 234.1C666.6 242.3 666.7 250.5 666.9 258.7C666.9 259.3 667 259.8 667 260.4C667 260.5 667.1 260.6 667.1 260.6C667.3 260.5 667.5 260.4 667.6 260.3C669.4 254.2 672.1 248.5 674.8 242.8C675.8 240.7 676.8 238.6 677.8 236.5C680.5 230.8 682.9 225 684.8 218.9C684.9 218.7 684.9 218.5 685 218.3C685.3 217.5 685.6 217.3 686.5 217.3C687.4 217.3 688.3 217.3 689.2 217.4C692.9 217.6 696.5 217.8 700.2 217.9C700.9 217.9 701.5 218 702.2 218C706.7 218.4 711.3 218.7 715.8 219.1C717 219.2 718.2 219.4 719.4 219.6C719.6 219.6 720 220.1 720 220.3C719.9 221.5 719.7 222.7 719.5 223.9C718.7 228.5 717.9 233.1 717.1 237.7C716.1 243.4 715.1 249.1 714.1 254.7C713.1 260.2 712.1 265.6 711.2 271.1C710.2 276.7 709.2 282.2 708.2 287.8C707.2 293.3 706.2 298.7 705.2 304.2C704.2 309.8 703.2 315.3 702.2 320.9C701.2 326.5 700.2 332 699.2 337.6C698.4 342.1 697.6 346.6 696.8 351C696 355.4 695.3 359.7 694.5 364.1C693.7 368.7 693 373.3 692.2 377.9C691.4 382.7 690.6 387.5 689.8 392.3C689 397.6 688.1 402.8 687.3 408.1C686.7 411.7 686.2 415.3 685.7 419C685.1 423 684.6 426.9 684 430.9C683.5 434.9 682.9 438.8 682.4 442.8C681.9 447.1 681.3 451.4 680.8 455.7C680.2 460.3 679.6 464.9 679.1 469.6C678.5 474.9 678 480.2 677.5 485.5C677.3 487.7 677.1 489.9 676.8 492.1C676.1 497.7 675.5 503.3 674.8 509C674.8 509.2 674.7 509.4 674.7 509.7C674.6 510.5 674.1 510.9 673.4 511C672.3 511.1 671.2 511.1 670.1 511.2C668.5 511.3 667 511.4 665.4 511.5C661.2 511.8 657 512.1 652.8 512.4C652.2 512.4 651.7 512.1 651.7 511.5C651.7 510.6 651.7 509.7 651.7 508.8C651.7 500.7 651.8 492.6 651.8 484.5C651.8 483.7 651.8 482.9 651.8 482.2C651.8 481.8 651.8 481.3 651.8 480.9C651.8 480.4 651.5 480.1 651.3 480.3C651.2 480.5 651 480.6 651 480.8C649.7 485.7 648.3 490.6 647 495.6C645.6 500.6 644.3 505.7 642.9 510.7C642.7 511.3 642.3 511.7 641.7 511.7C640.6 511.7 639.5 511.8 638.4 511.8C626.4 511.9 614.4 512.1 602.4 512.2C575.5 512.6 548.6 513 521.8 513.4C517.2 513.5 512.7 513.5 508.1 513.6C507.2 513.6 506.3 513.7 505.4 513.7C504.8 513.7 504.5 514.2 504.7 514.9C504.9 515.5 505.1 516.2 505.3 516.8C511.1 534.5 516.5 552.3 521.2 570.3C524.9 584.2 528.2 598.3 530.4 612.5C531.1 617.1 531.1 616.1 528.9 619.6C525 625.6 520.4 631 514.9 635.6C508.9 640.7 502.1 644.4 494.4 646.3C492.7 646.7 490.9 647.1 489.2 647.5C489 647.5 488.9 647.8 488.8 648C485.9 648 483 648 480.1 648C478.3 647.6 476.5 647.3 474.7 646.9C470.8 646.3 467.1 645.1 463.6 643.6C450.2 637.7 440.3 628.1 433.5 615.2C433 614.2 432.8 613.1 432.8 612C433 601.4 432.7 590.9 431.6 580.4C431.1 575.5 430.7 570.7 430 565.8C429.1 559.4 428.1 553.1 427 546.7C425.3 537 423.2 527.3 420.9 517.7C420.8 517.2 420.6 516.6 420.5 516.1C420.2 515 419.9 514.8 418.9 514.8C418 514.8 417.1 514.8 416.2 514.8C404.4 515 392.7 515.1 380.9 515.3C367.8 515.5 354.7 515.7 341.6 515.9C332.3 516 322.9 516.2 313.6 516.4C312.9 516.4 312.3 516.5 311.6 516.6C311.4 516.6 311.2 516.8 311.1 517C311 517.3 310.9 517.6 310.8 517.9C309.5 523.7 308.2 529.6 307 535.5C306 540.8 305.1 546.2 304.3 551.6C303.6 556.2 303.1 560.8 302.6 565.5C302.1 570.8 301.8 576.1 301.6 581.4C301.4 589.5 301.8 597.6 302.6 605.7C302.9 608.3 303.1 611 303.3 613.7C303.4 615.4 303.4 617 303.5 618.7C303.5 619.6 303.3 620.4 302.9 621.2C300.9 625.3 298.1 628.9 294.7 632C291.4 635 287.7 637.4 283.7 639.4C278 642.2 272 644.1 265.8 645.4C260.1 646.6 254.4 647.2 248.6 647.6C248.2 647.6 247.7 647.5 247.3 647.5C244.6 647.5 241.8 647.5 239.1 647.4C238.3 647.4 237.6 647.4 236.8 647.4C233.2 647 229.5 646.6 225.9 646.1C221.9 645.5 218.1 644.5 214.3 643.2C212.8 642.7 211.4 642 210 641.4C209.8 641.3 209.5 640.9 209.5 640.6C209.4 640.1 209.4 639.5 209.4 638.9C209.4 625.8 210 612.7 211.3 599.7C211.9 594 212.5 588.2 213.3 582.5C214.4 574.8 215.7 567.2 217.3 559.6C220.2 545.9 223.9 532.5 229.1 519.4C229.2 519.1 229.3 518.8 229.3 518.5C229.3 518.2 229.2 518 229 518C228.3 517.9 227.7 517.9 227 517.9C211 518.1 195 518.4 179 518.6C164.8 518.8 150.6 519.1 136.3 519.3C117.6 519.6 99 519.9 80.3 520.2C78.1 520.2 75.9 520.3 73.6 520.4C72.5 520.4 72.2 520.2 72 519.2C71.5 517 71 514.9 70.5 512.7C66.3 496.1 62.2 479.6 57.9 463C52.3 441.4 46.6 419.9 40.9 398.3C33.7 371 26.4 343.6 19.2 316.3C17.4 309.7 15.7 303 14 296.3C12 288.2 10.2 280.1 8.3 272C7.7 269.3 7.1 266.6 6.5 263.9C6.4 263.4 6.7 263 7.1 262.9C12.3 262 17.5 260.6 22.7 259.4C23.7 259.2 24.6 258.9 25.6 258.7C26.3 258.5 26.7 258.7 26.9 259.3C27 259.6 27.1 259.9 27.2 260.2C28.4 265.1 30.4 269.7 32.4 274.2C33 275.6 33.7 277 34.4 278.4C34.5 278.7 34.9 278.8 35.3 279.1C35.2 277.8 35.2 276.7 35.1 275.6C35 273.9 34.9 272.3 34.8 270.6C34.6 263.4 34.5 256.2 34.1 249C34.1 248.4 34.1 247.9 34.1 247.3C34.1 247.1 34.3 246.9 34.4 246.8C35.2 246.5 36.1 246.3 37 246C39.1 245.5 41.3 244.9 43.5 244.4C43.8 244.3 44 243.9 43.9 243.6C43.5 243.1 43.1 242.5 42.7 242C39 237.3 35.4 232.5 32 227.6C31.6 227 31.6 226.7 32 226.1C34.7 222.8 37.3 219.6 40 216.3C40.1 216.1 40.2 216 40.3 215.8C40 215.8 39.7 215.7 39.6 216.1C38.5 216.8 37.3 217.5 36.2 218.2C34.1 219.6 32 221.1 29.9 222.5C29.2 223 28.8 222.9 28.3 222.1C28 221.6 27.7 221.2 27.4 220.7C23.8 215.1 20.4 209.5 17.2 203.6C16.9 203 16.6 202.4 16.3 201.9C16 201.4 16.2 200.9 16.7 200.5C18.8 198.9 20.9 197.3 23.1 195.7C23.9 195.6 24.3 194.9 24.8 194.5C24.9 194.5 24.9 194.3 24.9 194.2C24.7 194.2 24.5 194.1 24.3 194.1C23.9 194.2 23.6 194.4 23.2 194.6C21.2 195.5 19.1 196.4 17.1 197.3C16.5 197.6 15.9 197.8 15.3 198.1C14.8 198.3 14.4 198.2 14.2 197.8C13.9 197.2 13.5 196.6 13.2 196.1C9.6 189.1 6.4 181.9 3.5 174.6C2.4 171.8 1.4 169 0.3 166.2C-0.1 165.2 -0.1 164.3 0.8 163.5C2.5 162 4 160.4 5.6 158.9C17.1 148 29 138.2 41.5 128.8C54.5 119.1 67.9 110 81.5 101.2C92.3 94.3 103.2 87.4 114.1 80.5C122.1 75.4 130.1 70.1 137.8 64.5C141.5 61.8 145 59.0001 148.4 55.9001C148.9 55.4001 149.2 54.9001 149.1 54.2001C148.9 53.2001 148.8 52.2001 148.7 51.2001C148.5 48.5001 149.1 46.1 151.3 44.3C152.6 43.2 153.8 42.1001 155.2 41.2001C158.7 38.7001 162.3 36.2001 165.8 33.7001C172.6 29.1001 179.3 24.3001 185.7 19.2001C191.9 14.3001 198 9.40005 203.7 3.90005C204.3 3.30005 205 2.70005 205.7 2.20005C206.9 1.40005 208.1 0.600049 209.6 0.400049C210.7 0.400049 211.9 0.400049 213 0.300049C214.7 0.500049 216.2 1.20005 217.6 2.00005C218.4 2.40005 219.1 2.90005 219.8 3.50005C220.7 4.20005 221.6 4.70005 222.8 3.90005C223.2 3.70005 223.6 3.60005 224.1 3.50005C226.6 2.70005 228.9 2.90005 231.1 4.40005C231.9 5.00005 232.7 5.60005 233.5 6.20005C237.9 9.50005 242.4 12.9 246.8 16.2C248.1 17.2 249.5 18.1 250.9 19.1C251.7 20.6 252.4 22 253.2 23.5C258.8 33.9 264.8 44.0001 271.1 53.9001C275.2 60.3001 279.3 66.6 284.2 72.3C284.6 72.8 284.7 73.2 284.4 73.8C283.2 76.3 282.1 78.8 280.9 81.3C280.3 82.6 279.7 83.9 279.1 85.2C279.5 86.7 280.5 87.9 281.3 89.2C290.8 104.7 300.2 120.3 309.7 135.8C311 137.9 311 137.9 310.6 140.1C310.2 142.3 309.8 144.5 309.6 146.7C309.1 154.4 309.2 162 310.3 169.6C311.5 177.7 313.3 185.7 315.8 193.6C319.2 204.3 323.7 214.5 329 224.5C340.4 246 353.3 266.6 366.9 286.8C367.1 287.2 367.4 287.5 367.7 287.8C367.8 287.9 368.2 287.9 368.3 287.7C368.7 287.2 369.1 286.6 369.4 286.1C376.4 274.2 383 262.2 389.2 249.9C395 238.3 400.4 226.5 405 214.4C409.2 203.2 412.9 191.8 415 179.9C416.2 173.2 416.9 166.5 416.7 159.7C416.6 154.7 415.9 149.7 414.4 144.9C413.6 142.4 413.9 142.5 415 141C415.3 140.6 415.5 140.3 415.8 139.9C427.6 123.9 439.4 107.9 450.9 91.7C451.5 90.8 452.2 89.9 452.8 89C453.2 88.4 453.4 87.8 453.4 87.1C453.6 83.6 453.8 80 454.1 76.5C454.3 73.4 454.5 70.3 454.7 67.2C454.7 66.6 454.9 66.1 455.3 65.7C455.7 65.3 456 64.8 456.3 64.4C461.7 57.6 467.2 50.9 472.6 44.1C479.2 35.8 485.9 27.4 492.5 19C494.2 16.8 495.9 14.6 497.5 12.4C498.6 11 499.7 9.60005 501.3 8.70005C503.5 7.40005 505.8 6.80005 508.3 7.40005C510.2 7.80005 511.9 8.50005 513.5 9.50005C515.1 10.5 516.6 11.6 518.1 12.7C518.8 13.2 519.5 13.8 520.2 14.3C521.3 14.3 521.9 13.4 522.8 12.9C524.8 11.7 526.9 10.7 529.3 10.4C532.8 9.90005 536.2 10.1 539.5 11.3C541.9 12.2 544.2 13.3 546.3 14.8C547.6 15.7 548.9 16.6 550.1 17.5C561.6 26.4 573.1 35.3001 584.6 44.2001C586.8 45.9001 588.7 47.9001 590.3 50.2001C591.4 51.7001 592.3 53.4001 592.9 55.2001C594 58.2001 594.3 61.2 593.4 64.3C593.1 65.3 592.8 66.2 592.5 67.2C592.4 67.5 592.6 67.9 592.8 68.1C593.2 68.5 593.6 68.8 594.1 69.1C598.5 72.3 602.9 75.5 607.4 78.6C640.5 101.1 676.3 117.5 715.3 126.6C718.1 127.3 720.9 127.8 723.8 128.4C724.4 128.8 724.7 128.7 725 128.6ZM254.3 106C254.2 105.8 254 105.7 253.9 105.5C253.9 105.4 254 105.2 254 105.2C254.4 105.4 254.3 105.7 254.3 106C254.5 107.8 254.7 109.6 255.2 111.4C255.8 114.3 256.4 117.2 257 120.1C257.3 121.4 257.5 122.7 257.7 124C257.8 124.3 257.7 124.6 257.6 125C257.6 125 257.4 125 257.3 125C256.9 125 256.8 124.6 256.7 124.3C253.9 119.8 251.1 115.3 248.4 110.8C248.4 110.1 247.8 109.7 247.5 109.2C247.5 109.1 247.3 109.1 247.3 109.1C247.2 109.2 247.2 109.3 247.2 109.4C247.4 110.1 247.4 110.8 248.1 111.3C250.8 117.8 253.4 124.2 256.1 130.7C270.4 165.4 284.6 200.3 298.1 235.3C305 253.1 311.7 270.9 317.8 289C317.9 289.4 318.1 289.8 318.3 290.2C318.5 290.6 318.8 290.9 319.2 291.1C322.4 292.2 325.5 293.1 328.8 294C329.5 294.2 330.2 294.6 331 294.3C331.4 294.2 331.3 293.9 330.3 291.9C330 291.3 329.7 290.7 329.4 290.1C324 279.2 318.9 268.1 314.7 256.6C312 249.2 309.6 241.7 308.1 234C307.5 230.9 307 227.9 306.9 224.8C306.9 223.6 307 223.3 307.3 223.4C307.9 223.5 307.8 224.1 308 224.4C308.2 224.7 308.3 225 308.4 225.3C317.7 247.7 327.1 270.1 336.4 292.6C336.8 293.6 337.3 294.6 337.7 295.6C337.9 296 338.3 296.3 338.7 296.4C341.1 296.8 343.5 297.3 345.9 297.7C346.4 297.8 347 297.8 347.6 297.8C347.9 297.8 348.2 297.4 348.1 297.2C347.3 295 346.5 292.8 345.7 290.7C341.2 278.3 337.4 265.7 333.8 253C333.3 251.2 332.6 249.5 331.6 247.8C327.3 240.7 323.3 233.4 319.5 226C313.6 214.5 308.5 202.7 304.6 190.5C304.3 189.4 303.8 188.4 303.3 187.4C299 178.5 294.7 169.6 290.7 160.6C288.4 155.4 286.1 150.3 284.1 145C284.5 145.1 284.6 144.7 284.6 144.5C288.6 151.6 292.7 158.5 297.1 165.3C297.5 166 298 166.6 298.4 167.2C298.5 167.4 298.7 167.5 299 167.3C299.1 167.3 299.1 167.1 299.1 167C299 165 298.9 163 298.7 161C298.3 155.7 298.6 150.4 299.5 145.1C299.8 143.4 300.2 141.6 300.6 139.9C300.8 139.2 300.6 138.6 300.3 138C299.9 137.4 299.6 136.9 299.2 136.3C293.6 127.4 288.1 118.4 282.5 109.5C279.2 104.1 275.8 98.8 272.5 93.4C272.2 92.3 271.4 91.7 270.8 90.8C271 92 271.3 93.1 272 94C276.6 104.6 281.2 115.1 285.7 125.7C287.8 130.6 289.9 135.5 292 140.4C291.6 140.5 291.6 140.8 291.6 141.2C291.2 140.5 290.8 139.9 290.4 139.2C282.6 124.5 274.7 109.9 266.9 95.2C266.4 94.2 265.8 93.3 265.3 92.3C265.1 92 264.8 91.8 264.5 91.9C262.5 92.9 260.5 93.9 258.6 94.9C258.4 95 258.1 95.5 258.2 95.7C258.3 96.6 258.6 97.4 258.8 98.3C260 102.8 261.2 107.3 262.5 111.8C267.4 128.8 272.8 145.7 279 162.3C284 175.6 289.6 188.6 296.4 201.1C296.8 201.7 297.1 202.4 297.6 203.4C295.9 201.6 294.8 199.8 293.7 198.1C289 190.8 284.9 183.2 281.1 175.5C272.7 158.5 265.7 140.9 259.8 122.9C258.5 118.9 257.2 114.9 255.9 110.9C255.8 109.2 254.9 107.6 254.3 106ZM482.6 45.6C483.7 44.9 484.2 43.6 485 42.6C485.2 42.4 485.2 42.2 485 42C484.1 42.9 483.1 43.7 482.4 44.8C479 48.5 475.8 52.2001 472.9 56.2001C471.8 57.7001 470.8 59.3 469.7 60.8C469.5 61.1 469.3 61.4001 469.2 61.7001C469.1 61.9001 469.3 62.1 469.3 62.3C469.4 62.3 469.4 62.2001 469.5 62.2001C469.6 62.1001 469.7 62.1 469.7 62C474.1 56.5 478.3 51 482.6 45.6ZM359 298.3C359.3 298.5 359.6 298.9 360 298.7C360.1 298.8 360.1 298.9 360.2 299C360.4 299.3 360.6 299.6 361 299.5C361.3 299.5 361.7 299.4 361.9 299.2C362.6 298.2 363.2 297.1 363.8 296.1C363.9 295.9 363.9 295.6 363.8 295.5C363.5 295 363.2 294.6 362.9 294.1C358.1 287.8 353.4 281.3 348.9 274.7C347.9 273.2 346.9 271.8 345.8 270.4C345.8 270.3 345.8 270.2 345.8 270.1C345.7 270 345.5 269.8 345.4 269.7C345.3 269.9 345.1 270 345.1 270.2C345.1 270.6 345 271 345.3 271.3C345.4 271.6 345.5 271.9 345.6 272.3C346.8 278.1 348.3 283.9 349.9 289.7C350.7 292.5 351.5 295.2 352.4 298C352.5 298.4 352.8 298.8 353.3 298.9C355 299.3 356.8 299.4 358.6 299.4C358.6 299.2 358.9 298.8 359 298.3ZM558.6 113.5C561.8 109.7 564.9 105.8 568.2 102C573.3 96 578.4 90 583.5 84.1C585.2 82.2 585.2 82.1 587.8 82.6C588.8 82.8 589.7 83.2 590.6 83.5C590.9 83.6 591 84.1 590.8 84.4C590.5 85 590.1 85.5 589.8 86.1C588 88.9 586.2 91.7 584.4 94.4C584.1 94.8 583.8 95.3 583.6 95.7C583.6 95.7 583.6 95.8 583.6 95.9C583.7 95.9 583.8 95.9 583.9 95.8C584.4 95.3 585.1 95 585.2 94.2C587.5 91.6 589.8 89.1 592.1 86.5C592.5 86 593 85.5 593.5 85.1C593.6 85 593.9 84.9 594.1 84.9C594.6 85.1 595.1 85.3 595.6 85.5C601.3 88.2 606.9 91.2 612.4 94.3C622.1 99.8 631.7 105.3 641.3 110.7C647.2 114 653.2 117.2 659.3 120.1C662.5 121.6 665.8 123.1 669.1 124.2C671.3 124.9 673.5 125.5 675.8 125.6C675.1 125.1 674.5 124.7 673.8 124.4C670.9 123.3 668 122.1 665.2 120.8C655 116.3 645.3 111.1 635.7 105.5C621.4 97.2 607.5 88.3 593.8 78.9C592.7 78.1 591.6 77.4 590.5 76.7C589.2 75.9 587.8 75.3 586.3 74.8C584 74.1 581.9 74.6 580 76C579 76.7 578.2 77.6 577.5 78.6C573.9 83.5 569.9 88.1 565.9 92.8C565 93.8 564.2 94.9 563.4 95.9C563.4 95.9 563.4 96.1 563.5 96.1C563.6 96.1 563.7 96.1 563.7 96.1C564.6 95.4 565.4 94.7 566.2 93.9C569.4 91.1 572.5 88.3 575.7 85.5C576.7 84.6 577.8 83.8 578.8 83L578.9 83.2L579 83.1C579.1 83.6 578.8 83.9 578.5 84.3C576.2 87.4 573.8 90.4 571.6 93.6C567 100.2 562.4 106.8 557.8 113.4C557.4 114 557 114.7 556.6 115.3C556.6 115.4 556.6 115.5 556.6 115.6C556.7 115.8 556.9 115.8 557.1 115.6C557.6 114.9 558.4 114.5 558.6 113.5ZM394.1 277.7C391.8 284.4 389.5 291.1 387.3 297.8C387.2 298.2 387.1 298.7 387.1 299.1C387.1 299.3 387.3 299.6 387.5 299.6C388.2 299.6 388.8 299.6 389.5 299.5C390 299.5 390.3 299.2 390.5 298.8C390.7 298.4 390.8 298 391 297.6C395.3 285.5 399.4 273.3 403 261C405.4 252.7 407.5 244.3 408.9 235.8C409.1 234.5 409.4 233.2 409.2 231.8C409.2 231.6 409.2 231.3 409.1 231.2C408.9 230.8 408.8 231.3 409.2 231.3C409.1 231.4 409.1 231.5 409 231.5C408.3 232 408.2 232.8 407.9 233.5C402 246.5 395.3 259.2 388.3 271.6C386.7 274.4 385.4 277.3 384.6 280.5C383.3 286 381.3 291.3 379.4 296.6C379.1 297.5 378.8 298.5 378.4 299.4C378.3 299.7 378.6 300.1 378.9 300.1C379.6 300.1 380.2 300.1 380.9 300.1C382 300.2 382.5 299.6 382.9 298.7C383.4 297.5 383.9 296.2 384.4 295C387 289 389.8 283.1 393.2 277.5C393.5 277.5 393.7 277.8 394.1 277.7ZM563 42.5C563.5 42.5 564.1 42.5 564.6 42.5C568.3 45 571.8 47.7001 574.9 50.9001C576.4 52.4001 577.8 54 578.9 55.8C580.5 58.2 581.5 60.7 581 63.6C581 63.7 581 63.8001 581 63.9001C581 64.3001 581.2 64.5 581.5 64.7C581.6 64.8 581.7 64.8 581.8 64.9C582.4 65.3 583 65.3 583.2 64.8C583.6 64.1 584 63.5001 584.3 62.7001C585.6 59.6001 585.3 56.6 583.1 54C582.3 53.1 581.4 52.2001 580.5 51.4001C579.4 50.5001 578.2 49.6001 577.1 48.7001C566.2 40.2001 555.4 31.8 544.5 23.4C543.4 22.5 542.1 21.7 540.9 21C539.4 20.1 537.7 19.4 536 19C532.7 18.3 529.8 18.9 527.5 21.4C527.3 21.6 527.3 22 527.6 22.3C528 22.7 528.4 23.1 528.8 23.4C530.3 24.7 531.8 26.1 533.3 27.4C543 35.9 552.9 44.1001 563.1 51.9001C563.9 52.5001 564.7 53.1001 565.5 53.7001C565.8 53.9001 566.2 53.7001 566.3 53.4001C566.5 52.9001 566.7 52.4 566.8 51.8C567 50 566.5 48.3001 565.7 46.7001C565.1 45.1001 564.1 43.8 563 42.5ZM216.2 136C216.4 136.8 216.5 137.5 216.7 138.3C218 143.3 219.6 148.3 221.3 153.2C230.3 179.5 242.4 204.4 257.3 227.9C260.7 233.2 264.3 238.4 267.9 243.7C268 243.8 268.1 244 268.2 244.1C268.3 244.2 268.6 244.3 268.6 244.3C268.7 244.1 268.8 243.8 268.4 243.7C268 242.3 267.6 240.9 267.2 239.6C262.1 223.6 256.9 207.6 251.8 191.6C252.3 191.6 252.3 191.1 252.6 190.9C259.5 206.5 266.4 222.1 273.3 237.8C277.6 247.6 282 257.5 286.3 267.3C286.8 268.4 287.3 269.5 288.1 270.5C290.8 274 293.4 277.6 296.1 281.2C296.4 281.5 296.7 281.8 297 282.1C297.1 282.2 297.3 282.2 297.3 282.2C297.4 282.1 297.7 281.9 297.6 281.8C297.5 281.3 297.4 280.7 297.2 280.2C294.3 271.2 291.4 262.3 288.5 253.3C288.8 253.6 289.1 253.6 289.2 253.1C289.3 253.3 289.4 253.5 289.5 253.7C293.5 262.3 297.5 271 301.6 279.6C302.6 281.7 303.3 283.9 304.7 285.8C306.8 286.7 309 287.6 311.1 288.5C311.7 288.8 312.3 289 313 289.2C313.3 289.3 313.6 289.4 314 289.4C314.1 289.4 314.2 289.4 314.3 289.3C314.5 289.2 314.6 289 314.5 288.7C314.3 288.2 314.1 287.7 313.9 287.1C309.4 276.1 305 265.1 300.5 254.1C287 221.3 273.2 188.6 259.3 156C253.7 143 248.1 129.9 242.5 116.9C242.5 116 241.9 115.3 241.5 114.5C241.5 114.4 241.3 114.4 241.2 114.4C241.1 114.4 241.1 114.5 241.1 114.6C241.1 114.8 241 115.1 241.1 115.3C241.4 116.4 241.5 117.5 242 118.4C242.2 119.4 242.5 120.3 242.7 121.3C243.8 125.9 244.9 130.5 246 135.2C246.1 135.6 246.2 136.1 246.2 136.5C246.2 136.7 246.1 136.9 246.1 137.1C246.1 137.2 246.1 137.8 246.4 137.2C246.4 137.2 246.3 137.1 246.2 137C244.9 135.7 244.3 134.1 243.4 132.5C241 128.4 238.7 124.2 236.4 120.1C236.3 119 235.5 118.4 235 117.8C234.9 118.6 235.5 119.5 235.7 120.4C235.7 120.4 235.9 120.5 236 120.5C236.4 121.6 236.8 122.8 237.2 123.9C240.2 131.4 243.1 138.9 246.2 146.4C255.4 169 264.5 191.5 275.1 213.5C274.7 213.6 274.6 213.9 274.7 214.3C274.3 213.7 273.8 213 273.4 212.4C269.4 206.1 265.7 199.7 262.1 193.2C253.1 176.8 244.8 160.1 236.8 143.1C234.2 137.5 231.6 131.9 228.9 126.3C228.8 125.4 228.3 124.7 227.5 123.7C227.8 124.8 228.1 125.6 228.3 126.4C228.4 126.8 228.3 126.2 228.6 126.4C228.7 127 228.8 127.7 229 128.3C232.1 138 235.2 147.7 238.3 157.4C237.8 157.3 237.8 157.6 237.8 158C236.3 155.7 235.2 153.2 233.9 150.7C230.6 144.3 227.3 138 224 131.6C224 130.9 223.5 130.4 223.2 129.9C223.1 129.8 222.9 129.8 222.8 129.7C222.8 129.8 222.7 129.9 222.7 130C222.9 130.8 223 131.7 223.5 132.4C226.1 139.8 228.6 147.2 231.3 154.6C234 162.1 236.8 169.5 240.3 176.7C239.9 176.7 239.8 176.9 239.9 177.4C238.1 175.6 236.6 173.5 235.1 171.4C231.3 166.2 228.1 160.6 225.2 154.9C221.9 148.5 219 141.9 216.2 135.3C216.1 134.3 215.6 133.5 215 132.7C215.2 133.6 215.4 134.6 215.6 135.6C216 136.3 215.9 135.6 216.2 136ZM462.6 614.3C462.9 613.2 463.1 612.1 463.4 611.1C464.5 606.1 465.5 601.1 466.3 596.1C467 591.7 467.5 587.3 467.9 582.9C468.4 577.1 468.8 571.4 468.9 565.6C469 555.9 468.4 546.3 467.2 536.7C466.4 530 465.2 523.3 463.7 516.7C463.6 516.1 463.4 515.4 463.1 514.8C463 514.5 462.8 514.2 462.4 514.2C460.4 514.2 458.4 514.3 456.4 514.3C456.1 514.3 455.7 514.7 455.8 514.9C455.9 515.7 455.9 516.4 456 517.2C456.3 520.1 456.7 522.9 457 525.8C457.3 529.2 457.6 532.7 457.9 536.1C458.5 542.3 458.9 548.5 459 554.7C459.3 566.2 459.3 577.8 458.3 589.3C458.1 592.1 457.8 594.8 457.5 597.6C456.8 602.5 456.1 607.5 455 612.4C454.8 613.2 454.2 614.1 454.6 615C455 615.7 455.7 616.3 456.4 617C459 619.5 461.7 621.8 464.6 623.8C465 624.1 465.3 624.3 465.7 624.5C465.9 624.6 466.4 624.5 466.6 624.3C466.7 624.1 466.9 623.9 467 623.8C471.1 615.7 474.6 607.3 477.1 598.5C478.2 594.5 479 590.5 479.8 586.5L480 586.7L480.2 586.5C480.3 587.2 480.3 587.8 480.4 588.5C480.6 595.7 479.9 602.9 478.8 610.1C477.9 615.9 476.7 621.7 475.2 627.3C475 627.9 474.9 628.6 474.9 629.3C474.9 629.5 475 629.7 475.2 629.9C475.5 630.1 475.8 630.3 476.1 630.4C482.6 633 489.2 634.3 496.3 633.5C503.5 632.6 510 630 515.7 625.5C516.3 625 516.5 624.5 516.4 623.8C516 621.7 515.7 619.7 515.3 617.6C513.9 609.9 512.5 602.1 511 594.4C510.9 593.9 510.7 593.3 510.5 592.8C510.5 592.7 510.3 592.7 510.3 592.6C510.1 592.5 510 592.6 510 592.9C509 599.4 507.8 605.8 506.5 612.2C505.7 616 504.8 619.8 503.9 623.5C503.8 623.8 503.7 624.1 503.3 624.1C503.3 624.1 503.2 623.9 503.2 623.8C503.2 622.2 503.2 620.7 503.3 619.1C503.5 613.4 503.7 607.8 503.9 602.1C504 599.4 504.1 596.8 504.1 594.1C504.3 585.2 504.5 576.3 504.6 567.5C504.6 566.4 504.6 565.3 504.3 564.2C503 559.5 501.8 554.8 500.5 550.1C500.4 549.8 500.2 549.5 500.1 549.2C500 549.5 499.8 549.7 499.8 549.9C499.6 551.3 499.4 552.8 499.3 554.2C499 557.2 498.8 560.2 498.4 563.1C497.5 569.4 496.6 575.6 495.2 581.8C493.8 588.5 492.1 595.2 489.9 601.7C489.7 602.3 489.3 602.9 489.3 603.6C489.2 604.5 488.3 604.8 488.1 605.5C488.1 605.6 488.3 605.8 488.3 605.9C488.6 605.6 488.5 606.1 488.5 605.7C488.5 604.2 488.5 602.6 488.7 601.1C488.8 600 489 598.9 489.1 597.8C489.4 594.5 489.7 591.2 490 587.9C490.4 583.6 490.8 579.3 491 575C491.4 565.1 491.8 555.3 491.3 545.4C490.9 538.1 490.3 530.8 489.1 523.6C488.6 520.6 488 517.7 487.1 514.9C487 514.5 486.7 514.4 486.4 514.3C486 514.2 485.5 514.2 485.1 514.2C480.7 514.2 476.2 514.3 471.8 514.3C471.5 514.3 471.1 514.3 470.8 514.4C470.5 514.4 470.2 514.8 470.3 515.1C470.4 516 470.6 516.9 470.8 517.7C472.5 525.6 473.4 533.7 473.8 541.8C474.4 552.6 474.2 563.3 473.1 574.1C472.4 581.2 471.4 588.2 469.8 595.1C468.6 600.5 467.2 605.9 465.2 611.1C464.7 612.5 464.2 614 463.3 615.3C463.1 614.5 463.1 614.2 462.6 614.3ZM481.4 82C480.4 81.4 479.4 80.8 478.4 80.2C478.3 80.1 478.1 80.3 477.9 80.4C478 80.5 478 80.6 478.1 80.6C479.2 81.5 480.2 82.4 481.5 82.9C492.4 90.7 502.8 99.3 512.4 108.6C536.8 132.3 555.4 159.8 567.8 191.5C575.7 211.5 580.8 232.2 584.2 253.4C584.7 256.5 585.2 259.5 585.7 262.6C585.7 262.9 586.2 263.2 586.4 263.1C586.8 263 587.3 262.9 587.7 262.8C591.4 261.7 595 260.3 598.6 258.8C608.9 254.4 618.7 248.9 628.1 242.8C634.5 238.7 640.5 234.3 646.5 229.6C646.8 229.8 647.2 229.8 647.6 229.7C642.2 235.1 636.3 239.9 630.1 244.5C615.7 255.2 600.3 263.9 584 271.1C582.6 271.7 581.2 272.4 579.8 273C579.5 273.1 579.2 273.1 578.9 273.2C578.8 273.2 578.7 273.3 578.7 273.4C578.7 273.7 578.8 273.8 579.1 273.8C579.8 273.7 580.6 273.9 581.1 273.1C584.2 272.3 587.2 271.2 590.2 270C603.8 264.9 616.4 258 628.4 249.8C641.7 240.7 653.9 230.1 665.1 218.5C666.2 217.4 667.2 216.2 668.2 215.1C668.5 213.3 668.1 211.6 667.9 209.8C667.8 208.7 667.7 207.6 667.7 206.5C667.7 206.2 668.1 205.8 668.3 205.9C670.4 206.1 672.5 206.3 674.6 206.6C675.4 206.7 676.1 206.5 676.6 205.8C680.2 201.5 683.8 197 687.1 192.5C687.5 191.9 687.7 191.3 687.4 190.6C686.4 188.1 685.4 185.7 684.5 183.2C684 181.9 683.5 180.5 683 179.1C682.9 178.9 683.2 178.4 683.4 178.3C684.2 178.3 684.9 178.2 685.7 178.2C689 178.2 692.4 178.2 695.7 178.2C696.6 178.2 697.2 177.9 697.6 177.1C697.7 176.9 697.8 176.7 698 176.5C701.6 170.8 705 164.9 708 158.8C709.7 155.3 711.3 151.8 712.6 148.1C713 147.1 713.3 146 713.6 144.9C713.6 144.8 713.6 144.7 713.5 144.6C713.3 144.7 713.1 144.7 713 144.8C712.5 145.7 712 146.5 711.6 147.4C709.6 151.1 707.5 154.8 705 158.2C704 159.6 702.8 161 701.7 162.4C701.6 162.5 701.4 162.6 701.2 162.7C701.2 162.5 701.1 162.2 701.2 162.1C703.9 157.1 705.9 151.8 707.4 146.3C708.4 142.8 709.2 139.2 710.1 135.7C710.1 135.6 710.2 135.5 710.1 135.4C710 135.2 709.9 135 709.7 134.9C709.2 134.7 708.6 134.6 708.1 134.4C706.3 134 704.4 133.7 702.6 133.3C698.6 132.4 694.6 131.3 690.7 130C689.8 129.7 689.6 129.8 689.3 130.8C689.1 131.3 689 131.9 688.8 132.4C687.3 137.3 685.7 142.1 683.7 146.8C673.2 171.7 657.4 192.7 636.6 210C630.5 215 624 219.5 617 223.2C614.1 224.8 611 226.1 607.9 227.3C607.4 227.5 606.9 227.7 606.4 227.4C607.4 226.7 608.3 225.9 609.3 225.2C613.9 221.9 618.4 218.5 622.8 214.9C629.3 209.6 635.3 203.9 640.7 197.5C648 188.7 654.1 179 660 169.2C660.2 168.9 660.2 168.6 660.3 168.2C660.7 168.1 660.3 168.7 660.6 168.3C661.4 167.3 662 166.2 662.3 165C661.6 166 660.5 166.7 660.3 168C659.4 169.1 658.5 170.2 657.6 171.4C653.4 177.1 648.9 182.6 644.1 187.9C633.7 199.2 622 208.8 609.2 217.1C601.9 221.9 594.3 226.3 586.7 230.7C586.5 230.8 586.3 230.9 586.1 231C585.8 231.1 585.4 231 585.3 230.7C585.2 230.3 585 229.9 584.9 229.4C583.4 221.7 581.4 214 579.1 206.5C571.4 182 559.7 159.6 544.2 139.2C542.1 136.5 539.9 133.8 537.8 131.1C537.4 130.6 537.4 130.2 537.8 129.6C540.3 126.3 542.8 123.1 545.3 119.8C545.8 119.5 546 119.1 546.2 118.6C546.2 118.5 546.2 118.3 546.2 118.3C546 118.2 545.8 118.1 545.7 118.1C545.4 118.2 545.2 118.5 545 118.7C542.3 121.3 539.5 123.9 536.8 126.4C536.4 126.8 535.9 127.1 535.5 127.4C535.3 127.6 535.1 127.5 534.9 127.3C534.2 126.6 533.5 125.9 532.9 125.1C517.8 108.8 500.8 94.1 481.4 82ZM474.3 171.2C474.4 170.8 474.3 170.5 473.9 170.3C474.1 169.9 474.4 169.5 474.6 169.2C483.5 154.4 492.5 139.6 501.4 124.8C502 123.8 502.6 122.7 503.2 121.6C503.2 121.5 503.2 121.4 503.1 121.3C503.1 121.3 502.9 121.3 502.9 121.4C502.1 122.2 501.3 122.9 500.5 123.7C496.2 128.2 491.8 132.6 487.5 137.1C486.9 137.7 486.2 138.3 485.6 138.9H485.4C485.3 138.8 485.3 138.7 485.3 138.6C485.8 137.6 486.2 136.6 486.7 135.6C490.7 127.6 494.6 119.5 498.6 111.5C499.3 111.2 499.2 110.4 499.5 109.9C499.5 109.8 499.5 109.7 499.4 109.6C499.3 109.6 499.2 109.6 499.1 109.6C498.9 109.8 498.6 110 498.4 110.2C493.6 115 488.9 119.8 484.1 124.6C483.4 125.3 482.7 126 481.9 126.7C481.8 126.8 481.7 126.8 481.6 126.8C481.5 126.8 481.4 126.7 481.4 126.6C481.6 126.1 481.7 125.6 482 125.1C484.8 119.2 487.7 113.3 490.5 107.4C490.8 106.8 491.1 106.2 491.4 105.6C491.6 105.2 491.8 104.8 491.9 104.4C491.9 104.3 491.9 104.2 491.9 104.1C491.8 103.9 491.6 103.9 491.4 104.2C490 105.6 488.6 107 487.2 108.4C483.4 112.3 479.6 116.2 475.8 120.1C475.4 120.5 475 120.8 474.5 121.2C474.3 121.3 474.3 121.2 474.3 120.9C474.2 120.3 474.6 119.9 474.9 119.4C478.1 113.4 481.3 107.5 484.5 101.5C485 101.2 485.1 100.6 485.3 100.2C485.3 100.1 485.3 100 485.2 99.9H485C484.7 100.2 484.4 100.5 484.2 100.8C480.1 105.6 475.9 110.3 471.8 115.1C470.8 116.3 469.8 117.4 468.8 118.6C468.4 119 468 119.4 467.6 119.8C467.5 119.9 467.4 119.9 467.3 120C467.3 119.8 467.1 119.6 467.2 119.5C470.3 112.2 473.5 104.9 476.6 97.6C476.9 97.4 476.9 97.1 476.8 96.8C476.7 96.5 476.6 96.5 476.2 97C471.9 101.5 467.6 105.9 463.3 110.4C462.6 111.1 461.9 111.8 461.2 112.5C461.1 112.6 460.8 112.8 460.7 112.7C460.5 112.6 460.6 112.4 460.7 112.2C461.2 111.3 461.7 110.5 462.2 109.6C464.5 105.6 466.8 101.6 469.2 97.5C470.2 96.4 470.2 96.3 470.2 95.7C470.2 95.6 470 95.6 470 95.6C469.5 95.8 469.1 96.1 469 96.7C468.6 97.2 468.1 97.7 467.7 98.2C458.8 109.7 449.9 121.2 441 132.7C437 137.9 433.1 143.2 429.2 148.4C428.6 149.1 428.3 149.9 428.4 150.9C428.9 155.2 428.7 159.5 428.4 163.9C428.1 168.5 427.5 173 426.7 177.4C425.4 184.4 423.6 191.3 421.5 198C421.1 199.4 420.8 200.8 420.8 202.2C420.8 207.5 420.2 212.8 419.4 218.1C418.4 224.5 416.9 230.7 415.3 236.9C412.1 248.7 408.2 260.2 403.9 271.7C400.6 280.4 397.1 289 393.4 297.6C392.8 299 393 299.3 394.6 299.1C395.8 299 397 298.8 398.2 298.6C401.6 298.1 405 297.6 408.4 297.1C408.9 297 409.2 296.8 409.5 296.4C410 295.5 410.4 294.6 410.9 293.7C412.7 290.1 414.6 286.6 416.8 283.3C417.1 282.8 417.5 282.4 417.8 282C417.9 281.9 418 281.9 418.1 281.9C418.1 282 418.2 282.1 418.2 282.2C418.1 282.6 418.1 283.1 418 283.5C416.7 287.4 415.4 291.3 414 295.1C413.9 295.5 414.2 295.9 414.7 295.8C415.8 295.6 416.9 295.4 417.9 295.1C418.2 295 418.5 294.7 418.6 294.5C418.9 293.7 419.2 292.8 419.5 292C422.5 283 425.8 274.2 429.6 265.6C434.4 254.5 439.8 243.7 446.2 233.4C446.9 232.3 447.6 231.2 448.4 230.1C448.5 230 448.6 229.9 448.7 229.8C448.9 229.7 448.9 229.9 448.8 230.2C448.6 230.7 448.6 231.3 448.4 231.8C446.4 237.3 444.4 242.8 442.3 248.3C436.8 263 430.9 277.7 424.3 292C424.1 292.4 424 292.8 423.8 293.2C423.8 293.3 423.7 293.4 423.7 293.5C423.7 293.6 423.9 293.7 424 293.7C425.3 293.5 426.6 293.3 427.8 292.8C428.1 292.7 428.4 292.4 428.6 292.2C428.9 291.6 429.2 291 429.5 290.4C437.1 275.2 444.6 260 452.2 244.8C455.6 237.8 459.3 231 463.4 224.4C468.2 216.5 473.3 208.8 478.5 201.3C489.3 185.8 500.7 170.8 512.6 156.1C515.2 152.8 517.9 149.5 520.5 146.2C521.3 146 521.5 145.3 521.9 144.6L521.8 144.4C521.7 144.4 521.6 144.4 521.5 144.5C521.2 144.8 520.9 145.1 520.6 145.3C520.3 145.6 520 145.9 519.7 146.2C515.4 150.3 511.1 154.4 506.9 158.5C507 158.1 506.9 157.8 506.5 157.6C510.3 151.1 514.1 144.6 517.9 138.1C518.8 137.4 519.1 136.3 519.6 135.4C520 134.8 520.4 134.2 520.4 133.3C519.3 134.6 518.2 135.8 517.5 137.2C516.8 138.2 516 139.2 515.3 140.1C496.9 165.5 478.6 190.9 460.2 216.2C459.6 217.1 458.8 217.9 458.2 218.8C458.3 218.5 458.4 218.2 457.9 218.3C458.5 217.2 459 216.1 459.6 215.1C464.8 206 470 196.8 475.2 187.7C486.7 167.4 498.3 147.1 509.8 126.8C510.7 126.2 510.8 125.1 511.3 124.3C511.5 124.1 511.5 123.7 511.7 123.2C510.9 124.1 510.3 124.7 509.8 125.4C509.7 125.6 509.6 125.8 509.5 126C501.7 136 493.9 146.1 486.1 156.1C482.2 161.1 478.3 166.2 474.3 171.2ZM57.4 171.9C57.7 172.2 57.9 172 58 171.7C62.2 178.6 66.5 185.5 71.1 192.1C82.8 209 95.8 224.9 110.4 239.4C118 246.9 125.9 254 134.5 260.4C135.3 261 136.1 261.6 136.9 262.2C137.4 262.6 137.8 262.5 138.3 261.9C138.8 261.2 139.3 260.4 139.8 259.7C149.4 245.4 160.5 232.5 173.4 221.2C174.1 220.6 174.7 220 175.4 219.4C175.5 219.3 175.6 219.1 175.7 218.9C175.5 218.9 175.2 218.8 175.1 218.9C171.9 220.2 168.9 221.8 166 223.6C161.7 226.3 157.6 229.3 153.6 232.5C148.6 236.6 143.8 240.9 139.2 245.4C138.7 245.9 138.2 246.3 137.7 246.7C137.6 246.8 137.2 246.8 137.1 246.7C136.4 246.1 135.8 245.5 135.2 244.8C126.3 235.2 117.8 225.3 109.8 214.8C109.8 214.2 109.2 214 108.9 213.6C108.9 213.5 108.7 213.6 108.7 213.5C108.7 213.6 108.6 213.7 108.7 213.8C108.9 214.3 108.9 215 109.5 215.4C110.9 218.2 112.2 221 113.6 223.7C114.8 226.1 116.2 228.4 117.4 230.7C117.5 231 117.6 231.3 117.7 231.6C117.8 231.9 117.7 232 117.5 231.8C116.9 231.3 116.3 230.8 115.8 230.2C105 218.4 95 205.9 85.9 192.7C78.5 181.9 71.7 170.7 66 158.9C64.7 156.3 63.6 153.7 62.4 151C62.2 150.6 62.3 150.1 62.6 149.8C62.9 149.5 63.2 149.1 63.5 148.8C68.3 144.2 73.1 139.5 77.9 134.9C82 131 86.3 127.3 90.7 123.8C97 118.7 103.7 114.2 111 110.5C115.4 108.3 119.8 106.4 124.3 104.5C130.3 102.1 136.2 99.7 142.1 97.2C149.2 94.1 156.2 90.6 162.6 86.2C162.9 86 163.2 85.9 163.5 85.7C163.7 85.5 163.9 85.6 164.1 85.8C164.5 86.2 164.9 86.6 165.2 87C168.5 91 171.9 95 175.2 99C177.2 101.4 179.2 103.7 181.2 106.1C181.1 106.6 181.5 106.8 181.8 107.1C181.9 107.2 182.1 107.2 182.3 107.2C182.3 107.1 182.3 107 182.2 106.9C182 106.6 182 106 181.4 106.1C181.2 104.8 180.4 103.9 179.8 102.9C176.4 97.3 173 91.7 169.6 86.1C169 85.2 168.5 84.2 167.9 83.2C167.7 82.8 167.8 82.3 168.1 82C173 77.7 177.4 72.8 182.1 68.2C184.5 65.8 187 63.3001 189.4 60.9001C193.5 57.0001 197.7 53.2 202 49.6C208.1 44.6 214.5 40.0001 221.4 36.2001C225.4 34.0001 229.4 32 233.7 30.4C234.5 30.5 235.1 29.9 235.7 29.6C235.9 29.5 235.9 29.4 235.7 29.3C235.5 29.3 235.3 29.2001 235.1 29.2001C234.8 29.2001 234.5 29.2001 234.1 29.2001C233.9 29.2001 233.6 29.2 233.5 29.3C233.3 29.4 233 29.1 232.9 29.5C224.8 30.8 217.2 33.4 209.9 37.1C204.3 39.9 199.1 43.1001 194.1 46.9001C190.2 49.8001 186.3 52.8 182.4 55.8C174.5 61.9 166.6 68 158.7 74.1C146.9 83.2 134.4 91.1 121.1 97.9C107 105.1 93 112.5 78.9 119.9C66.2 126.6 53.6 133.6 41.3 141.2C35.3 144.8 29.5 148.6 23.8 152.8C22.8 153.5 21.9 154.3 20.9 155C20.5 155.3 20.4 155.7 20.5 156.2C20.9 158 21.1 159.9 21.6 161.7C22.9 166.4 24.3 171.1 25.7 175.7C25.3 175.8 25.2 176.1 25.2 176.4C24.1 175 23.4 173.4 22.6 171.8C20.8 168.1 19.1 164.4 17.4 160.7C17.2 160.2 16.9 159.7 16.6 159.3C16.4 159 16.3 159.1 16 159.2C14.4 160.3 14.6 160.9 15.1 162.3C18.2 170.5 22 178.4 26 186.2C26.5 187.2 26.9 187.3 27.9 187.1C32.9 185.9 37.8 184.7 42.8 183.5C43.2 183.4 43.7 183.3 44.1 183.3C44.3 183.3 44.5 183.3 44.8 183.3C44.9 183.3 45.1 183.4 45.1 183.4C45.1 183.6 45.1 183.9 45 184C41.6 187.1 38.1 190.3 34.7 193.4C33.9 194.1 33.1 194.9 32.3 195.7C32 196 31.9 196.5 32.1 196.9C33.3 199 34.5 201.1 35.8 203.2C36.9 205 38 206.8 39.1 208.6C39.3 208.9 39.9 209 40.3 208.8C40.6 208.6 40.9 208.5 41.2 208.3C45.3 205.7 49.4 203.1 53.6 200.5C54.3 200.1 54.9 199.7 55.6 199.3C55.7 199.3 55.9 199.3 55.9 199.3C56 199.5 56.1 199.7 56 199.9C55.7 200.5 55.3 201 55 201.6C53.4 204.2 51.7 206.9 50.1 209.5C49.8 209.9 49.8 210.3 50.1 210.7C50.3 211 50.4 211.3 50.6 211.6C53 215.3 55.4 219.1 57.8 222.8C60.8 227.5 63.9 232 67.4 236.4C72.8 243.3 78.3 250.2 83.7 257.1C84.2 257.8 84.9 258.4 85.2 259.3C85 259.6 84.8 259.9 84.6 260.1C84.2 259.7 83.7 259.4 83.3 259C81.8 257.4 80.2 255.8 78.7 254.2C67.6 242.1 57.3 229.3 48.3 215.5C48.1 215.2 47.9 215 47.7 214.7C47.5 214.4 47.1 214.4 46.9 214.7C46.4 215.5 45.8 216.4 45.3 217.2C45.1 217.5 45.1 217.8 45.3 218.1C45.8 218.8 46.3 219.6 46.8 220.3C52.4 228.4 58.3 236.3 64.6 244C72.8 253.9 81.6 263.4 91 272.1C91.7 272.7 92.3 273.3 93 273.9C93.8 274.6 94 274.6 95 274.1C95.6 273.8 96.2 273.4 96.7 273.1C101.4 270.5 106.2 267.8 110.9 265.2C111.8 264.7 112.6 264.2 113.5 263.8C113.6 263.8 113.7 263.8 113.8 263.8C113.8 264 113.9 264.2 113.8 264.4C113.4 265 113 265.5 112.6 266C109.4 270.1 106.2 274.2 103 278.4C102.5 279.1 101.9 279.8 101.4 280.5C101.2 280.7 101.3 281.2 101.5 281.4C101.7 281.6 102 281.9 102.2 282.1C107.8 286.7 113.6 290.9 119.7 294.9C120 295.1 120.3 295.2 120.6 295.4C120.9 295.5 121.3 295.4 121.4 295.1C122.5 292.1 122.7 292.5 119.9 290.8C119.3 290.5 118.8 290.1 118.2 289.7C115.3 287.8 112.6 285.7 110 283.4C109.6 283 109.2 282.6 108.8 282.2C108.6 282 108.6 281.8 108.9 281.7C109 281.7 109.1 281.6 109.2 281.7C113.2 283.9 117.2 286.1 121.4 287.9C122 288.2 122.6 288.4 123.2 288.6C123.4 288.7 123.7 288.6 123.8 288.4C124.1 287.9 124.4 287.4 124.6 286.9C126.6 282.1 129 277.5 131.5 272.9C131.8 272.4 132.1 271.9 132.3 271.4C132.4 271.2 132.3 270.7 132.1 270.5C131.4 269.8 130.6 269.1 129.9 268.5C125.5 264.7 121.3 260.8 117.2 256.7C93.3 232.9 74.1 205.7 58.8 175.8C58.5 174.3 58 173.1 57.4 171.9ZM42.7 311.1C42.4 311 42.2 311 42.1 311.3C41.8 310.5 41.4 309.7 41.1 308.9C35.8 295.1 30.5 281.4 25.2 267.6C25 267 24.7 266.4 24.4 265.8C24.3 265.5 23.9 265.3 23.6 265.4C22 265.9 20.5 266.5 18.9 267.1C18.7 267.2 18.5 267.6 18.4 267.9C18.3 268.2 18.4 268.6 18.5 268.9C21.9 284.4 25.8 299.8 30.1 315C35.3 333.5 40.9 351.8 46.7 370.1C53 389.9 59.3 409.6 65.3 429.4C72.3 452.4 78.8 475.6 83.8 499.2C84 500.2 84.2 501.2 84.5 502.1C84.6 502.4 84.9 502.6 85.2 502.7C85.6 502.8 86.1 502.8 86.5 502.8C98.7 502.5 110.9 502.2 123.2 502C143.3 501.7 163.4 501.5 183.5 501.4C214.9 501.2 246.4 501.4 277.8 501.8C292.4 502 306.9 502.1 321.5 502.2C331.6 502.3 341.7 502.5 351.8 502.6C358.2 502.7 364.7 502.7 371.1 502.8C397.3 503.1 423.5 503.5 449.8 503.8C487.2 504.1 524.7 504.1 562.1 503.9C569.5 503.9 577 503.8 584.4 503.6C601.7 503.3 619.1 502.9 636.4 502.6C637.1 502.6 637.7 502.5 638.4 502.5C638.8 502.5 639 502.2 639.1 501.9C639.3 501.5 639.4 501.1 639.5 500.6C640.7 496.2 641.9 491.8 643.2 487.5C646.5 475.8 649.9 464.1 652.9 452.2C653.1 451.6 653.3 450.9 653.5 450.3C653.5 450.2 653.6 450.1 653.7 450.1C653.9 450 654 450.1 654 450.4C654.2 453.5 654.5 456.6 654.6 459.7C654.9 467.5 655.1 475.2 655.4 483C655.6 487 655.9 491 656.2 495C656.2 495.5 656.6 495.9 657 495.9C658.1 495.9 659.2 495.9 660.3 495.9C664.5 495.8 663.8 496.4 664.2 492.5C664.3 491.5 664.4 490.5 664.5 489.5C665 484 665.5 478.4 666.1 472.9C666.3 470.6 666.6 468.3 666.9 465.9C667.2 463 667.6 460.2 667.9 457.3C668.4 452.9 668.9 448.5 669.5 444.1C670 439.9 670.6 435.7 671.2 431.6C672 426.1 672.7 420.6 673.5 415.1C674.2 409.9 675.1 404.8 675.9 399.6C676.9 393.2 677.8 386.9 678.9 380.5C679.9 374.5 680.9 368.5 681.9 362.4C682.9 356.5 683.8 350.6 684.9 344.7C686.1 337.7 687.4 330.7 688.6 323.7C689.8 316.8 691 309.9 692.2 303C693.6 294.9 695.1 286.8 696.6 278.8C697.8 271.8 699 264.8 700.2 257.8C701.4 250.7 702.7 243.6 703.9 236.5C704.2 234.8 704.4 233 704.7 231.2C705 229.6 704.6 229.4 703.3 229.2C702.1 229.1 700.9 228.9 699.7 228.8C696.7 228.6 693.7 228.4 690.7 228.2C689.9 228.1 689.5 228.4 689.2 229.2C688.6 231 688.1 232.8 687.5 234.6C684.9 242.1 682.2 249.7 679.6 257.2C675.8 268 672.1 278.8 669 289.8C667.5 295.4 666.1 301 665.1 306.6C664.6 306.1 664.6 306.1 664.3 306.5C664.2 305.3 664.1 304.1 664 302.9C663.7 298.5 663.4 294 663.1 289.6C662.7 284.2 662.3 278.7 662.1 273.3C661.7 265.7 661.5 258 661.2 250.3C661 246.3 660.9 242.3 660.8 238.3C660.8 238.1 660.8 237.9 660.8 237.6C660.8 237.3 660.3 237.1 660.1 237.2C659.7 237.5 659.2 237.8 658.8 238.2C644.5 249.9 628.9 259.6 612.2 267.7C606.8 270.3 601.3 272.7 595.8 275C595 275.3 594.1 275.5 593.6 276.3C593.1 276.4 592.5 276.5 592 276.7C586.4 278.9 580.8 280.9 575.1 282.8C573.6 283.3 572.1 283.7 570.7 284.2C570.3 284.3 569.8 284 569.7 283.6C569.7 283.3 569.6 282.9 569.6 282.6C569.5 280.5 569.4 278.4 568.8 276.4C568.8 275.5 568.8 274.6 568.7 273.7C568.3 270.8 567.9 268 567.4 265.1C565.4 254.2 563 243.4 559.8 232.7C559.1 230.3 558.3 227.8 557.5 225.4C557.4 225.1 557 224.9 556.7 225C556.2 225.3 555.7 225.6 555.3 225.9C540.2 236.4 525 246.9 509.9 257.4C509.4 257.8 508.8 258.2 508.3 258.6C507.8 258.9 507.5 259.4 507.4 259.9C507.3 260.3 507.1 260.7 507 261.2C504.9 271.5 502.9 281.9 501.4 292.3C501.3 293.2 501.1 294 500.9 294.9C500.9 295 500.7 295.1 500.5 295.3C500.4 295.2 500.3 295.1 500.3 295C500 294.2 499.8 293.3 499.5 292.5C497.3 285.2 495 277.9 492.8 270.5C492.7 270.1 492.5 269.7 492.3 269.3C492.2 269 491.7 268.9 491.5 269.1C491 269.5 490.5 269.9 489.9 270.4C485.7 273.9 481.4 277.1 476.8 280.2C455.1 294.6 431.2 303.3 405.5 307C399.3 307.9 393.2 308.4 386.9 308.6C373.5 309 360.3 308.2 347.1 305.9C340.2 304.7 333.4 303.2 326.6 301.4C309.4 296.7 293 290 277.4 281.4C276.5 280.9 275.6 280.5 274.8 280C274.5 279.9 274.2 280 274 280.4C273.8 280.9 273.6 281.4 273.4 281.9C269.9 291.1 266.8 300.5 264.2 310C264 310.8 263.7 311.7 263.1 312.5C263 312.1 263 311.9 262.9 311.6C262.6 306.5 262.3 301.4 262 296.3C261.9 295.4 261.9 294.5 261.8 293.6C261.5 288.2 261.1 282.7 260.7 277.3C260.6 275.4 260.9 273.5 260.1 271.7C258.6 270.6 256.8 270 255.1 269.1C254.8 268.9 254.5 268.8 254.2 268.7C254 268.6 253.8 268.7 253.5 268.7C253.4 269.1 253.3 269.5 253.2 270C251.7 276.3 250.5 282.6 249.4 288.9C248.3 295.3 247.2 301.8 246.5 308.3C245.9 313.6 245.3 318.9 244.8 324.2C244.7 325 244.6 325.7 244.6 326.5C244.6 327.4 244.3 328.2 243.9 329C243.9 329.1 243.9 329.2 244 329.3C244.1 329.6 244.3 329.7 244.5 329.5C244.6 329.4 244.7 329.4 244.7 329.3C244.8 328.6 244.2 328.1 244.2 327.5C244.2 326.7 244 326 243.9 325.2C243.5 321.3 243.1 317.5 242.8 313.6C242.3 308.4 241.8 303.2 241.2 298C241 295.8 240.7 293.6 240.4 291.4C239.8 286.8 239.2 282.2 238.7 277.5C238.2 272.8 237.7 268 237.1 263.3C237 262.5 236.5 262.1 235.8 261.9C233.2 261.2 230.7 260.5 228.1 259.8C213.4 255.7 198.6 251.6 184 247.2C176.8 245 169.6 242.8 162.6 240C162.5 240 162.4 239.9 162.3 239.9C162.1 239.9 161.8 239.9 161.7 240C161.4 240.2 161.2 240.4 161 240.7C151.9 251.3 144.1 262.7 137.4 274.9C137.1 275.4 137 275.9 136.8 276.4C136.3 277.2 135.8 277.9 135.4 278.7C130.6 287.7 126.5 297 122.7 306.5C122.4 307.3 122.1 308.1 121.7 309C121.6 309.3 120.9 309.5 120.5 309.4C119.6 309 118.7 308.6 117.8 308.1C114.4 306.3 111.1 304.3 107.8 302.2C107 301.7 106.1 301.2 105.2 300.7C104.5 299.8 103.5 299.3 102.6 298.6C98.6 295.6 94.5 292.7 90.5 289.7C88.3 288 88.1 288.4 90.1 286C91.2 284.7 92.3 283.5 93.4 282.2C93.8 281.8 94.1 281.3 94.4 280.9C94.4 280.9 94.4 280.7 94.3 280.6C94.2 280.5 94.1 280.4 94 280.4C93.5 280.6 93 280.8 92.5 281.1C90.3 282.4 88.1 283.6 85.9 284.9C85.3 285.2 84.9 285.1 84.4 284.8C84.1 284.5 83.7 284.2 83.4 283.9C77.2 278.7 71.2 273.2 65.4 267.6C61.1 263.3 56.9 258.9 52.8 254.3C52.2 253.6 51.5 253.3 50.5 253.5C47.9 254.2 45.3 254.8 42.7 255.4C41.8 255.6 41 255.8 40.1 256.1C39.9 256.2 39.7 256.4 39.7 256.6C39.6 257.1 39.6 257.7 39.6 258.3C39.6 267.4 40.2 276.5 40.6 285.6C40.6 285.8 40.6 286 40.6 286.3C41 291.9 41.3 297.6 41.6 303.2C42.4 305.8 42.6 308.5 42.7 311.1ZM245.8 291.3C245.9 291.3 246 291.2 246.1 291.2C246.4 290 246.7 288.8 246.9 287.7C248.1 282.2 249.2 276.6 250.5 271.1C251.2 268.1 252 265.1 252.8 262.1C253.1 261.1 253.4 261 254.2 261.4C256.6 262.6 258.9 263.9 261.3 265.1C262.4 265.7 263.5 266.2 264.5 266.8C264.7 266.9 265 267.3 265 267.6C265.1 268.3 265.1 268.9 265.1 269.6C265.1 274.4 265 279.1 265 283.9C265 284.8 265.1 285.7 265.1 286.6C265.1 286.7 265.2 286.7 265.3 286.8C265.4 287 265.5 286.9 265.6 286.7C265.7 286.5 265.8 286.3 265.9 286.1C267.9 280.4 269.8 274.8 271.8 269.1C271.9 268.9 271.9 268.7 272 268.5C272.1 268 272 267.6 271.8 267.2C271.5 266.7 271.2 266.3 270.8 265.9C268.1 262.3 265.3 258.6 262.6 255C253.2 242.2 244.3 229.1 236.2 215.4C223.7 194.2 213.6 172 206.2 148.5C204.9 144.4 203.7 140.2 202.5 136.1C202.3 135.6 202.2 135 202 134.5C201.9 134.2 201.5 134 201.2 134.1C199.3 134.8 197.4 135.5 195.6 136.1C195.2 136.2 194.7 136.2 194.4 135.8C193.7 135.2 193.1 134.6 192.5 134C188.2 130 183.4 126.5 178.2 123.7C174.6 121.8 170.9 120.4 167 119.6C163.3 118.9 159.5 118.8 155.8 119.7C149.2 121.3 143.9 125 139.7 130.3C138 132.4 136.9 134.8 136 137.4C134.8 141.3 134.4 145.2 134.8 149.2C135.6 156.5 138 163.2 142 169.4C143.1 171.2 144.3 172.9 145.5 174.7C156 189.6 168.8 202.3 183.6 213C184.4 213.6 185.2 214.2 186 214.8C186.2 215 186.3 215.5 186.1 215.7C185.6 216.3 185 216.8 184.5 217.3C180.4 221.3 176.2 225.4 172.1 229.4C171.4 230.1 170.7 230.8 170.1 231.5C170.5 232.1 170.9 232.4 171.4 232.6C174.2 234.1 177.2 235.4 180.2 236.6C187.1 239.3 194.2 241.7 201.3 243.9C211.8 247.1 222.3 250.1 232.9 253.3C236.5 254.4 240.1 255.6 243.7 256.7C244.5 257 244.9 257.5 244.9 258.4C245.2 267.9 245.6 277.5 246 287C245.7 288.4 245.7 289.9 245.8 291.3ZM554.7 217C554.6 216.7 554.5 216.4 554.4 216.1C552.7 211.3 550.9 206.5 548.8 201.8C545.3 193.7 541.4 185.9 536.7 178.5C533.5 173.5 530.1 168.8 526 164.5C524.9 163.4 523.9 162.2 522.6 161.3C520.9 161.9 520.1 163.4 518.9 164.5C506.3 177.4 495.2 191.5 485 206.4C475.2 220.8 466.3 235.8 458.2 251.2C452 263 446.1 274.9 440 286.8C439.7 287.4 439.4 288 439.2 288.6C439.2 288.7 439.2 288.8 439.2 288.8C439.4 288.9 439.6 289 439.8 289C440.1 289 440.4 288.8 440.7 288.7C448.1 286.2 455.3 283.3 462.3 280C473.8 274.6 484.7 268.2 494.6 260.2C494.8 260.1 495 260 495.2 259.8C495.4 259.7 495.9 259.8 496 260.1C496.7 263.5 497.4 266.8 498.1 270.2C498.4 271.7 498.7 273.2 499 274.8C499.1 275.1 499.6 275.6 499.7 275.4C499.8 275.3 499.9 275.1 500 274.9C500.4 272.9 500.8 271 501.1 269C502 264.5 503 260.1 503.5 255.6C503.7 253.9 503.9 252.3 504.1 250.6C504.2 250 504.4 249.5 504.9 249.2C505.5 248.7 506.2 248.3 506.8 247.9C512.9 244 519 240.1 525 236.2C533.9 230.4 542.9 224.6 551.8 218.8C552.5 218.3 553.3 217.8 554 217.3C554.5 217.5 554.6 217.2 554.7 217ZM239.2 597.2C239.2 596.6 239.1 596.1 239.1 595.6C238.8 586.8 239.2 578.1 240 569.3C240.5 564.4 241 559.6 241.7 554.8C242.4 549.5 243.1 544.2 244 539C244.9 533.4 246 527.9 247 522.3C247.3 520.9 247.5 519.5 247.7 518C247.7 517.7 247.4 517.3 247.2 517.3C246.6 517.3 246.1 517.3 245.5 517.3C244.6 517.3 244 517.6 243.7 518.5C242.4 522.4 241 526.2 239.7 530.1C235.2 544.3 232 558.8 230.1 573.6C229.4 579.3 228.8 585.1 228.4 590.8C227.9 599.1 227.9 607.4 228.3 615.8C228.3 616.6 228.4 617.4 228.5 618.1C228.5 618.6 228.8 618.9 229.2 619.1C229.6 619.3 230 619.4 230.4 619.6C235.4 621.3 240.4 622.4 245.6 623.1C246.8 623.3 248 623.3 249.2 623.4C249.5 623.4 249.9 623.1 249.8 622.8C249.6 620.5 249.5 618.2 249.2 615.8C248.5 609 249 602.3 249.6 595.5C249.7 594 250 592.4 250.2 590.9C250.4 589.6 250.7 588.3 250.9 587C250.9 586.9 251.1 586.9 251.2 586.7C251.4 587.9 251.3 589.1 251.3 590.2C251.3 593.6 251.3 597.1 251.4 600.5C251.5 605.6 252.1 610.7 252.9 615.7C253.3 618 253.9 620.3 254.4 622.5C254.7 623.6 255 623.8 256 623.8C256.3 623.8 256.7 623.8 257 623.8C257.6 623.8 257.9 623.4 257.9 622.7C257.7 620.2 257.5 617.6 257.2 615.1C256.6 609.1 256.3 603.1 256.2 597.1C256 588 256 578.9 256.5 569.8C257 561.4 257.8 553 259.2 544.7C260.6 536 262.7 527.5 265.7 519.3C265.9 518.9 266 518.5 266.1 518C266.2 517.6 265.9 517.1 265.5 517.1C262.4 517.1 259.3 517.1 256.2 517.2C255.3 517.2 254.4 517 253.6 517.5C253.4 518.2 253.1 519 252.9 519.7C252.8 520 252.8 520.4 252.7 520.7C249.9 532.5 247.2 544.2 245.1 556.2C244.1 562.3 243 568.4 242.1 574.6C241.2 580.6 240.6 586.7 239.9 592.8C239.7 594.2 239.4 595.6 239.2 597.1C239.5 596.9 239.3 597 239.2 597.2ZM277.7 588.5C277.8 592.7 277.8 597.1 277.9 601.4C277.9 602.6 278 603.8 278 605.1C278 605.5 278 606 277.9 606.4C277.9 606.6 277.7 606.7 277.6 606.8C277.4 606.7 277.2 606.5 277.2 606.4C276.3 602.3 275.5 598.1 274.9 594C274 588.2 273.5 582.3 273.2 576.4C272.8 566.5 273.4 556.7 274.9 546.9C276 540.1 277.4 533.4 279.5 526.8C280.5 523.7 281.5 520.7 282.6 517.7C282.8 517 282.5 516.6 281.8 516.7C278.5 516.8 275.1 516.8 271.8 516.9C271.2 516.9 270.7 517.3 270.6 517.9C270.1 520.3 269.5 522.7 269 525C267.5 532.1 266.4 539.2 265.5 546.3C264.8 552.1 264.2 558 263.9 563.9C263.5 570.9 263.4 577.9 263.5 584.9C263.6 590.1 263.7 595.3 264.3 600.5C264.6 603.5 264.8 606.5 265.2 609.4C265.7 613.4 266.4 617.3 267.1 621.2C267.2 621.6 267.3 622.1 267.5 622.5C267.6 622.8 268 623.1 268.2 623.1C269 623.1 269.8 623.1 270.5 623C275 622.3 279.5 621.4 283.8 620.1C285.6 619.5 287.4 618.9 289.2 618.4C289.8 618.2 290.2 617.7 290.1 617.2C289.5 613.4 289.1 609.5 288.8 605.6C288.1 597.7 287.8 589.9 288 582C288.2 573.7 288.5 565.4 289.6 557.1C290.1 552.7 290.6 548.3 291.2 543.9C292.2 537.1 293.4 530.3 294.9 523.6C295.4 521.5 295.8 519.5 296.3 517.4C296.4 517.1 296.1 516.7 295.8 516.7C293.1 516.7 290.5 516.7 287.8 516.8C287.6 516.8 287.4 517 287.3 517.2C287.1 517.5 287.1 517.8 287 518.1C286 522.7 285.1 527.2 284.1 531.8C282.6 539 281.4 546.2 280.5 553.5C279.8 558.6 279.3 563.6 278.8 568.7C278.2 575.1 278 581.8 277.7 588.5ZM447.2 604.6C447.4 604.4 447.5 604.2 447.6 604.1C447.9 603.4 448.1 602.6 448.3 601.9C450.2 594.4 451.3 586.7 452.2 579C452.6 575.7 452.8 572.4 453.1 569.1C453.7 563.4 454 557.6 454.1 551.8C454.5 540.3 454.4 528.7 454.1 517.2C454.1 516.4 454 515.7 453.9 514.9C453.9 514.7 453.6 514.5 453.5 514.5C453.1 514.4 452.6 514.3 452.2 514.3C449.1 514.3 446 514.4 442.9 514.4C442.7 514.4 442.5 514.4 442.2 514.5C441.9 514.5 441.5 514.9 441.5 515.1C441.5 516.1 441.5 517.1 441.7 518.1C442.1 521.1 442.2 524.1 442.3 527.1C442.3 528.2 442.4 529.3 442.5 530.4C442.9 537.4 442.6 544.4 441.7 551.3C441.4 553.3 441.5 555.2 441.9 557.2C442.6 560.4 443.1 563.7 443.7 567C444.3 570.8 444.9 574.7 445.2 578.5C445.6 582.5 446 586.4 446.3 590.4C446.6 594.8 446.8 599.3 447.1 603.7C447.1 604 447.2 604.3 447.2 604.6ZM160.7 51.5C160.8 52.1 160.8 52.6001 160.9 53.2001C161.2 55.9001 162 58.4001 162.8 60.9001C162.9 61.2001 163.4 61.4001 163.6 61.2001C164.3 60.5001 165 59.8 165.7 59.1C171.9 52.9 178.2 46.8 184.9 41.1C192 35 199.3 29.3001 207.1 24.2001C212.1 20.9001 217.3 17.9 222.7 15.4C222.9 15.3 223.2 15.2 223.3 15.1C223.4 15 223.4 14.7 223.3 14.6C221.4 12.8 219.2 11.5 216.8 10.8C214.1 10 211.5 10.4 209.2 12C208.4 12.6 207.6 13.2 206.8 13.8C203.9 16.6 200.7 19 197.5 21.4C187 29.3 176.3 36.8001 165.5 44.2001C164.9 44.6001 164.2 45.1 163.6 45.5C161.6 47 160.6 48.9 160.7 51.5ZM435.2 526.5C435.3 526.5 435.4 526.4 435.5 526.4C435.4 523.3 435.2 520.2 435.1 517.2C435.1 516.5 435 515.9 435 515.2C435 514.9 434.7 514.6 434.4 514.6C433.9 514.6 433.3 514.6 432.8 514.7C432.7 514.7 432.5 515 432.5 515.2C432.5 515.5 432.5 515.9 432.6 516.2C433.3 519.1 434 522 434.7 524.9C434.6 525.3 435 525.9 435.2 526.5Z" fill="white"/>
<path d="M248.8 647.3C249.1 647.4 249.4 647.6 249.7 647.7C245 647.7 240.4 647.7 235.7 647.7C236.2 647.7 236.6 647.5 237 647.1C237.8 647.1 238.5 647.1 239.3 647.1C242 647.1 244.8 647.1 247.5 647.2C247.9 647.2 248.3 647.3 248.8 647.3Z" fill="#EB3F26"/>
<path d="M476.3 647.7C476.4 647.4 476.4 647.2 476.2 647.2C475.9 647.1 475.6 647 475.3 646.9C475.2 646.9 475.1 646.8 475 646.8C474.6 646.8 474.6 646.8 475 646.7C476.8 647.1 478.6 647.4 480.4 647.8C479 647.7 477.7 647.7 476.3 647.7Z" fill="#EB3F26"/>
<path d="M213.6 0C213.4 0.2 213.2 0.3 213 0.5C211.9 0.5 210.7 0.5 209.6 0.5C209.4 0.3 209.2 0.2 209 0C210.5 0 212.1 0 213.6 0Z" fill="#EB3F26"/>
<path d="M137.1 276.5C146.4 276.5 155.8 276.5 165.1 276.5C166.3 276.5 167.5 276.5 168.8 276.5C177.3 276.5 185.3 278.7 192.5 283.1C202.7 289.2 210.5 297.5 215.2 308.5C217.1 312.9 218.3 317.5 219.1 322.2C219.8 326.6 220.2 331 220.1 335.5C220 340.8 219.5 346.1 218.1 351.3C214.9 362.9 208.2 371.7 197.9 378C193.9 380.4 189.7 382.4 185.3 383.9C185 384 184.8 384.3 184.6 384.5C184.5 384.6 184.5 384.8 184.6 384.8C184.8 384.9 184.9 385.1 185.1 385.1C187.2 385.7 189.3 386.4 191.4 387.2C194.9 388.6 198.3 390.4 201.3 392.6C207.1 396.9 211.1 402.5 213.7 409.2C215.1 413.1 216 417 216.5 421.1C216.9 424.5 217 428 217 431.4C217 440.3 217 449.2 217 458C217 459 217 460 217.1 461C217.2 462.6 217.9 464 219.1 465.1C219.5 465.5 220 465.8 220.4 466.2C222 467.6 222.9 469.4 223 471.4C223.1 473.9 222.9 476.5 222.9 479.1C222.9 479.3 222.8 479.5 222.8 479.8C222.4 482.1 221.6 482.8 219.3 483.1C218.8 483.2 218.2 483.2 217.6 483.2C206.9 483.2 196.3 483.2 185.6 483.2C184.6 483.2 183.6 483.1 182.6 482.8C181.1 482.4 179.7 481.6 178.6 480.5C177.4 479.4 176.5 478.2 175.7 476.9C174.1 474.2 173.1 471.3 172.4 468.2C171.9 465.8 171.6 463.4 171.6 460.9C171.6 459.5 171.6 458 171.6 456.6C171.6 440.7 171.6 424.8 171.6 409C171.6 407 171.6 405 171.1 403C170.9 402.1 170.7 401.3 170.5 400.4C169 395.8 165.7 393.4 161 392.5C158.3 392 155.5 392 152.7 392.1C152.1 392.1 151.6 392.6 151.6 393.1C151.6 393.9 151.6 394.7 151.6 395.4C151.6 415.3 151.6 435.1 151.6 455C151.6 456.6 151.7 458.1 151.7 459.7C151.7 461.5 152.6 462.9 154 463.9C154.4 464.2 154.7 464.5 155.1 464.7C157.2 466.1 158.1 468.2 158.3 470.6C158.6 473.6 158.4 476.6 157.7 479.5C157.3 481 156.4 482.1 154.9 482.5C154.3 482.7 153.6 482.8 153 482.9C152.2 483 151.4 482.9 150.7 482.9C134.8 482.9 118.9 482.9 103 482.9C102.1 482.9 101.2 482.9 100.3 482.8C98.9 482.7 97.8 481.9 97.2 480.6C96.8 479.7 96.4 478.7 96.4 477.7C96.4 474.9 96.4 472.2 96.5 469.4C96.5 468.7 96.7 468.1 96.9 467.5C97.1 466.7 97.6 466.1 98.3 465.7C99 465.3 99.7 465 100.4 464.7C103.5 462.9 105.2 460.2 105.7 456.7C105.8 455.9 105.8 455.1 105.8 454.4C105.8 453.2 105.8 452 105.8 450.7C105.8 403.2 105.8 355.7 105.8 308.1C105.8 305.5 105.7 303 105.7 300.4C106.6 300.9 107.4 301.4 108.3 301.9C111.6 304 114.9 306 118.3 307.8C119.2 308.3 120.1 308.7 121 309.1C121.4 309.3 122 309.1 122.2 308.7C122.5 307.9 122.9 307.1 123.2 306.2C126.9 296.7 131.1 287.4 135.9 278.4C136.2 278 136.7 277.2 137.1 276.5ZM151.5 334.2C151.5 347.1 151.5 360 151.5 372.8C151.5 373.8 151.5 374.8 151.5 375.8C151.5 376.9 151.8 377.2 152.9 377.2C155.2 377.2 157.6 377.2 159.9 377.2C162.5 377.2 164.6 376.1 166.3 374.2C167.1 373.3 167.8 372.3 168.3 371.2C169.3 369.2 169.9 367.1 170.3 364.9C171.1 360.9 171.4 356.8 171.4 352.7C171.4 338.7 171.4 324.7 171.4 310.7C171.4 308.2 171.1 305.8 170.8 303.4C170.6 302 170.1 300.6 169.7 299.2C168.3 295.4 165.6 293 161.7 291.9C158.5 291 155.3 291.1 152.1 291.3C151.8 291.3 151.5 291.6 151.5 292C151.5 293.1 151.4 294.2 151.4 295.3C151.4 308.2 151.5 321.2 151.5 334.2Z" fill="#EB3F26"/>
<path d="M593.7 276.5C601.3 276.5 608.8 276.5 616.4 276.5C617.2 276.5 618 276.5 618.7 276.7C620.1 277 621.1 277.7 621.8 279C622.4 280.2 622.7 281.5 622.9 282.8C624.3 290.3 625.7 297.8 627.1 305.4C627.8 309.3 628.6 313.3 629.3 317.2C629.4 317.6 629.5 318.1 629.5 318.5C629.6 320 628.7 321.4 627.2 321.8C625.6 322.3 623.9 322.5 622.3 322.4C620.9 322.3 619.4 322.1 618 322C615.6 321.7 613.8 320.5 612.8 318.4C612.1 317 611.5 315.6 610.9 314.1C610 311.7 609.2 309.3 608.4 306.9C607.4 304.2 606.4 301.5 605.1 298.9C604.4 297.5 603.6 296.2 602.6 295C601.2 293.3 599.4 292.3 597.1 292.3C595.1 292.3 593.1 292.3 591.1 292.3C589.9 292.3 589.7 292.7 589.6 293.6C589.6 294.4 589.6 295.2 589.6 295.9C589.6 317.8 589.6 339.6 589.6 361.5C589.6 365.7 589.1 365.3 593.3 365.3C594.9 365.3 596.4 365.3 598 365.3C598.7 365.3 599.3 365.3 600 365.2C601.9 364.9 603.3 363.9 604 362.1C604.5 360.9 604.9 359.6 605.1 358.3C605.5 355.9 605.9 353.5 606.4 351.1C606.6 350 606.9 348.9 607.2 347.9C607.4 347.3 607.6 346.6 608 346.1C608.5 345.3 609.2 344.7 610.1 344.7C613.2 344.7 616.3 344.8 619.4 344.9C619.7 344.9 620 345 620.4 345.1C621.5 345.3 622.2 345.9 622.4 347.1C622.6 348.5 622.8 350 622.9 351.4C623 352 622.9 352.5 622.9 353.1C622.9 366.4 622.9 379.7 622.9 393.1C622.9 394.8 622.8 396.4 622.5 398.1C622.2 399.4 621.4 400.2 620.1 400.6C619.9 400.7 619.7 400.7 619.5 400.8C616.8 401.1 614.2 401.2 611.5 400.9C609.7 400.7 608.4 399.8 607.7 398.1C607.2 396.7 606.8 395.4 606.5 394C606 392 605.6 389.9 605.2 387.8C604.9 386.6 604.6 385.4 604.2 384.3C603.5 382 602 380.8 599.5 380.8C597.6 380.8 595.7 380.8 593.8 380.8C589.2 380.8 589.7 380.2 589.7 384.8C589.7 411.4 589.7 438.1 589.7 464.7C589.7 465.7 589.7 466.7 589.7 467.7C589.7 468.5 590.1 468.8 591 468.8C592.9 468.8 594.8 468.8 596.7 468.8C597.9 468.8 599.1 468.6 600.3 468.2C602.3 467.6 603.9 466.4 604.8 464.5C605.4 463.2 606 461.9 606.5 460.5C608.3 456 609.7 451.3 611.1 446.6C611.7 444.6 612.4 442.6 613.1 440.6C613.6 439.2 614.2 438 615.1 436.7C615.9 435.5 616.9 434.7 618.2 434.3C621.3 433.3 624.5 433.1 627.7 434C628.1 434.1 628.5 434.3 628.9 434.5C630.3 435.2 631.1 436.4 631.1 438C631.1 439.2 631.1 440.5 630.9 441.7C629.9 448 628.9 454.2 627.9 460.4C627.2 465.1 626.5 469.8 625.7 474.5C625.4 476.6 624.9 478.6 624.4 480.7C624.1 481.9 623.3 482.6 622.1 482.9C621.3 483.1 620.6 483.2 619.8 483.3C619 483.4 618.2 483.3 617.5 483.3C591.5 483.3 565.5 483.3 539.5 483.3C538.6 483.3 537.7 483.3 536.8 483.2C536.1 483.1 535.5 482.9 534.9 482.7C534.2 482.5 533.8 482 533.5 481.3C533.3 480.7 533.1 480 533 479.4C532.9 477.2 532.8 475 532.8 472.7C532.8 470.4 533.9 468.7 535.8 467.4C536.5 466.9 537.3 466.5 538.1 466.1C539.4 465.4 540.6 464.7 541.6 463.6C542.9 462.3 543.7 460.7 543.7 458.9C543.7 458.1 543.7 457.3 543.7 456.6C543.7 404.9 543.7 353.1 543.7 301.4C543.7 300.6 543.7 299.8 543.7 299.1C543.7 298.2 543.3 297.3 542.5 296.8C541.5 296.1 540.5 295.4 539.5 294.8C538.7 294.3 537.9 294 537.1 293.6C536.3 293.2 535.6 292.7 534.9 292.1C534.2 291.5 533.7 290.7 533.6 289.8C533.2 286.1 533.1 282.5 533.5 278.8C533.6 277.6 534.5 276.8 535.7 276.7C536.7 276.6 537.7 276.6 538.7 276.6C542.5 276.6 546.3 276.6 550 276.6C556.2 276.6 562.4 276.6 568.7 276.6C569.3 278.6 569.4 280.7 569.5 282.8C569.5 283.1 569.6 283.5 569.6 283.8C569.7 284.2 570.2 284.6 570.6 284.4C572.1 284 573.6 283.5 575 283C580.7 281.1 586.3 279.1 591.9 276.9C592.6 276.7 593.2 276.6 593.7 276.5Z" fill="#EB3F26"/>
<path d="M467.1 424.5C467 435.3 466.9 449.4 466.8 463.5C466.8 464.7 466.8 465.9 466.9 467.2C467 468 467.1 468.7 467.3 469.5C468.1 472.5 470.2 474.1 473.3 474.4C475 474.6 476.6 474.2 478.2 473.5C479.7 472.8 480.7 471.7 481.4 470.2C481.9 469.1 482.3 467.9 482.4 466.7C482.4 465.9 482.5 465.1 482.5 464.4C482.7 450.6 482.9 436.9 483 423.1C483 422.3 483 421.5 483 420.8C483 420 482.8 419.3 482.4 418.6C482 417.8 481.4 417.1 480.6 416.7C480 416.4 479.4 416.2 478.7 416C477 415.3 476.1 414 475.8 412.2C475.6 410.4 475.7 408.7 476.3 406.9C476.6 406.1 477.1 405.5 477.9 405.3C478.9 405 479.8 404.7 480.8 404.6C485.4 404.1 490.1 403.7 494.7 403.1C499.2 402.6 503.7 402 508.2 401.4C510.1 401.2 511.9 400.9 513.8 400.7C516.9 400.3 520 399.8 523 399.4C524.1 399.3 525.2 399.3 526.3 399.3C527.1 399.3 528 400.1 528.2 400.9C528.7 403.3 528.6 405.8 528.1 408.2C527.9 409.1 527.4 409.8 526.6 410.3C526 410.7 525.3 411.1 524.6 411.5C522 412.7 520.8 414.8 521 417.7C521 418.4 521 419 521 419.7C520.9 430.2 520.9 440.8 520.7 451.3C520.6 459.8 520.5 468.4 520.3 476.9C520.3 478 520.2 479.1 520.1 480.2C520 480.9 519.9 481.5 519.6 482.1C519.3 483 518.6 483.5 517.7 483.7C515.5 484.1 513.3 484 511.1 483.7C510.5 483.6 509.8 483.3 509.3 482.9C508.3 482.2 507.3 481.5 506.4 480.7C504.5 479.2 502.5 477.8 500.3 476.7C498.6 475.8 496.9 475.2 495.1 474.6C494.4 474.4 493.8 474.4 493.3 475C492.2 476 491.2 477 490.1 477.9C485.5 481.5 480.4 483.5 474.5 483.9C464 484.7 454.8 481.6 446.8 474.8C441.6 470.3 437.5 465 434.3 458.9C430.9 452.4 428.6 445.4 427 438.2C425.8 432.7 425 427 425.1 421.4C425.4 407 428.5 393.2 435.1 380.4C441.8 367.3 452.1 357.8 465.4 351.6C472.1 348.5 479.1 347.4 486.5 347.9C488.7 348.1 490.9 348.6 493 349.3C494.1 349.7 495.1 349.9 496.2 349.9C497.3 349.9 498.1 349.4 498.8 348.6C499.1 348.2 499.4 347.7 499.7 347.2C500 346.7 500.2 346.2 500.5 345.7C501.3 344.4 502.4 343.5 503.8 343.1C505.5 342.6 507.3 342.4 509 342.2C509.4 342.2 509.9 342.3 510.3 342.3C511.1 342.5 511.7 343 512.1 343.7C512.4 344.4 512.7 345.1 512.9 345.9C515 355.1 517.1 364.3 519.3 373.5C519.6 374.7 519.7 375.9 519.7 377.1C519.7 377.9 519.3 378.6 518.7 379.1C518.2 379.5 517.6 379.9 517 380.2C514.3 381.2 511.6 381.4 508.8 381.1C508.2 381 507.7 380.8 507.3 380.4C506.7 379.8 506.1 379.1 505.6 378.4C504.3 376.5 502.9 374.6 501.7 372.6C500.1 370.1 498.4 367.6 496.5 365.3C495.6 364.2 494.6 363.1 493.6 362.1C492.8 361.3 491.9 360.6 491 360C488.3 358.2 485.3 357.5 482.1 357.9C479.8 358.2 477.6 358.9 475.5 360.1C473.4 361.4 471.7 363.1 470.4 365.3C469.4 367.2 468.7 369.1 468.3 371.2C467.9 373.4 467.6 375.6 467.6 377.8C467.6 383.4 467.5 388.9 467.5 394.5C467.4 403.4 467.3 412.3 467.1 424.5Z" fill="#EB3F26"/>
<path d="M353 440.6C353 448.4 353 456.1 353 463.9C353 464.8 353 465.7 353 466.6C353 468.2 353.8 469.3 355 470.3C355.9 471 356.9 471.4 357.9 471.8C358.8 472.2 359.7 472.6 360.6 473.1C361.7 473.8 362.3 474.8 362.3 476.2C362.2 477.9 362.2 479.5 362.2 481.2C362.2 481.9 361.6 482.5 360.9 482.5C360 482.6 359.1 482.7 358.2 482.7C350.1 482.7 342 482.7 333.9 482.7C333.1 482.7 332.3 482.7 331.6 482.6C330.7 482.5 330 481.8 329.8 480.9C329.5 479 329.5 477.1 329.6 475.3C329.7 474.5 330.1 473.8 330.8 473.4C331.4 473.1 332 472.8 332.6 472.6C333.5 472.2 334.4 471.8 335.3 471.3C336.6 470.6 337.3 469.6 337.2 468C337.1 467.2 337.2 466.4 337.2 465.7C337.1 437.3 337 408.8 337 380.4C337 379.4 337 378.4 337 377.4C336.9 376.5 336.8 375.6 336.7 374.8C336.4 372.9 335.3 371.6 333.6 370.7C332.6 370.2 331.6 369.7 330.6 369.2C329.2 368.4 328.5 367.3 328.4 365.7C328.4 364.6 328.3 363.5 328.4 362.4C328.4 361.8 328.7 361.1 328.9 360.5C329.4 359.4 330.3 358.8 331.5 358.8C332.7 358.8 333.9 358.8 335.2 358.9C339.5 359.3 343.9 359.3 348.2 359.4C351.4 359.5 354.6 359.5 357.9 359.5C360.1 359.5 360.1 359.5 361.3 361.6C361.7 362.3 362.1 362.9 362.5 363.6C372.4 380.9 382.4 398.3 392.3 415.6C392.7 416.3 393.1 416.9 393.6 417.5C393.6 417.6 393.8 417.6 393.9 417.5C394 417.5 394.2 417.4 394.2 417.4C394.3 417 394.3 416.5 394.3 416.1C394.3 402.9 394.4 389.7 394.4 376.5C394.4 375.9 394.4 375.4 394.4 374.8C394.3 373.1 393.5 371.8 392.1 371C391.4 370.6 390.7 370.3 390 370C389.3 369.7 388.5 369.5 387.8 369.2C386.2 368.5 385.1 367.4 384.9 365.5C384.8 364.1 384.5 362.6 384.9 361.2C385.1 360.2 385.7 359.6 386.7 359.5C387.6 359.4 388.5 359.4 389.4 359.4C395.2 359.1 400.9 358.9 406.7 358.6C409.3 358.5 411.8 358.2 414.3 358.1C414.9 358.1 415.4 358.1 416 358.1C416.6 358.1 417.1 358.5 417.3 359C417.5 359.5 417.8 360 417.8 360.5C418.1 362.2 418 363.8 417.8 365.5C417.7 366.5 417.2 367.1 416.3 367.6C415.7 367.9 415.1 368.1 414.5 368.4C413.7 368.8 412.9 369.1 412.1 369.6C411 370.2 410.3 371.2 410.1 372.5C410 373.5 409.9 374.5 409.9 375.5C409.8 385.1 409.8 394.6 409.8 404.2C409.7 429 409.6 453.7 409.5 478.5C409.5 483.6 410.1 483 405.1 483C401.7 483 398.2 483 394.8 483C394.2 483 393.7 483 393.1 482.9C392.6 482.9 392.3 482.6 392 482.2C391.5 481.4 391.1 480.7 390.7 479.9C379.2 459.5 367.7 439.1 356.3 418.7C355.5 417.3 354.7 416 353.9 414.7C353.9 414.6 353.7 414.5 353.7 414.5C353.5 414.6 353.3 414.7 353.3 414.8C353.2 415.8 353.2 416.8 353.2 417.8C353 425.2 353 432.9 353 440.6Z" fill="#EB3F26"/>
<path d="M297.7 482.6C290.9 482.6 284.2 482.6 277.4 482.6C276.5 482.6 275.6 482.5 274.7 482.4C274.2 482.4 273.9 482 273.7 481.6C273.5 481.3 273.4 481 273.4 480.7C273.3 479.8 273.2 478.9 273.2 478.1C273.5 474.8 273.1 474.5 276.5 472.6C277 472.3 277.5 472 277.9 471.7C279.4 470.5 280.1 469 279.8 467.1C279.4 464.5 279 461.8 278.4 459.2C278.2 458.1 277.9 457 277.7 456C277.6 455.6 277.1 455.2 276.7 455.2C272.2 455 267.6 454.8 263.1 454.6C260.1 454.5 257.1 454.4 254.1 454.4C253 454.4 252.5 454.7 252.4 455.9C252.3 456.6 252.3 457.2 252.2 457.9C251.9 459.8 251.7 461.6 251.2 463.5C250.9 464.6 250.8 465.7 250.8 466.8C250.7 468 251.3 469 252.1 469.8C253 470.7 254 471.3 255.1 471.8C255.9 472.2 256.7 472.6 257.4 473.1C258.3 473.7 258.8 474.5 258.9 475.6C259.1 477.5 259.2 479.4 258.9 481.2C258.8 482 258.2 482.5 257.3 482.6C256.5 482.6 255.7 482.7 255 482.7C247.3 482.7 239.7 482.7 232 482.7C231.8 482.7 231.6 482.7 231.3 482.7C229.2 482.7 228.2 482.5 228.1 479.5C228 478.2 228 476.8 228.5 475.5C229 473.9 229.9 472.4 231.3 471.4C234.1 469.3 235.2 466.5 235.7 463.2C236.5 457.6 237.6 452.1 238.6 446.5C239.6 441 240.6 435.6 241.6 430.1C242.6 424.4 243.7 418.8 244.7 413.1C245.7 407.6 246.7 402.2 247.7 396.7C248.7 391.2 249.7 385.8 250.7 380.3C251.4 376.5 252.1 372.7 252.8 368.9C253 367.9 253 366.9 253.1 365.9C253.2 364.7 252.8 363.7 251.9 362.9C251 362.1 250.1 361.3 249.1 360.6C247.6 359.6 246.8 358.2 246.8 356.4C246.8 354.6 246.9 352.9 247 351.1C247.1 350.2 247.9 349.5 248.8 349.5C249.2 349.5 249.7 349.5 250.1 349.6C254.5 350.3 258.8 351.1 263.2 351.8C266.9 352.4 270.7 352.9 274.4 353.4C279.2 354 284.1 354.6 288.9 355.3C289.2 355.3 289.6 355.4 289.9 355.4C291.7 355.8 293.2 356.8 294 358.5C294.4 359.4 294.8 360.4 295 361.3C295.6 364 296.3 366.7 296.8 369.4C298.3 377.2 299.8 385.1 301.4 392.9C303 401.3 304.7 409.7 306.3 418C308 426.4 309.7 434.7 311.3 443.1C312.5 449.2 313.7 455.3 314.9 461.4C315.1 462.5 315.3 463.6 315.6 464.6C316.5 467.7 318.1 470.3 320.7 472.2C320.8 472.3 320.9 472.3 321 472.4C323.1 473.5 323.5 475.3 323.4 477.4C323.3 478.6 323.3 479.8 322.9 481C322.7 481.8 322.1 482.4 321.3 482.4C320.2 482.5 319.1 482.6 318 482.6C311.3 482.7 304.5 482.7 297.7 482.6ZM265.5 445.3C268 445.5 270.6 445.6 273.2 445.7C274 445.7 274.8 445.7 275.5 445.7C276.1 445.7 276.4 445.3 276.4 444.6C276.4 444.2 276.3 443.7 276.2 443.3C275.7 440.7 275.3 438.1 274.8 435.4C273.1 426.3 271.4 417.3 269.8 408.2C268.4 400.3 267 392.5 265.6 384.6C265.6 384.4 265.4 384.3 265.3 384.1C265.2 383.9 264.7 384.3 264.6 384.7C263.6 390.7 262.6 396.7 261.6 402.7C260.4 409.9 259.1 417.1 257.9 424.3C256.8 430.5 255.8 436.8 254.8 443C254.7 443.3 254.7 443.7 254.8 444C254.8 444.2 255 444.4 255.2 444.5C255.6 444.6 256 444.8 256.5 444.8C259.3 445.1 262.4 445.2 265.5 445.3Z" fill="#EB3F26"/>
<path d="M87.8 262.2C87.6 262.4 87.4 262.7 87.2 262.9C86.3 261.9 85.2 261.1 84.5 259.9C84.7 259.6 84.9 259.3 85.1 259.1C86.3 259.9 87 261.1 87.8 262.2Z" fill="white"/>
<path d="M458.6 186.1C460.6 184 462.4 181.7 464.7 179.8C464.9 180.1 465.1 180.2 465.5 179.9C461.9 186.8 458.3 193.6 454.8 200.5C446 217.4 437.2 234.3 428.8 251.3C427.9 253.2 426.9 255 426 256.9C426.1 256.6 426.1 256.4 425.7 256.5C426 255.3 426.3 254.2 426.7 253C430.6 241.8 434.8 230.8 439.5 220C440 218.9 440.5 217.8 440.9 216.7C441 216.5 441 216.2 441 215.6C437.3 221.6 434 227.5 430.8 233.5C430.7 233.2 430.5 232.8 430.6 232.6C430.9 231.5 431.3 230.5 431.7 229.5C439.8 207.9 450 187.5 462.8 168.3C467.1 161.8 471.7 155.6 476.7 149.6C477.1 149.1 477.6 148.6 478.1 148.2C478.1 148.2 478.3 148.2 478.3 148.3C478.4 148.4 478.4 148.5 478.4 148.6C478.1 149.3 477.9 150.1 477.5 150.7C474.8 155.9 472.1 161.1 469.3 166.3C466.3 171.7 463.2 177.1 460.2 182.5C459.7 183.5 459.1 184.4 458.6 185.4C458.4 185.6 458.5 185.8 458.6 186.1C458 186 457.9 186.4 457.6 186.8C457.5 187.1 457.4 187.2 457.6 187.3C457.7 187.3 457.8 187.2 457.9 187.2C458.2 186.8 458.6 186.5 458.6 186.1Z" fill="white"/>
<path d="M423.9 221.1C427 208.2 431.3 195.8 437 183.9C441.4 174.8 446.4 166.1 452.1 157.7C458.7 147.9 466.1 138.5 474 129.7C474.2 130 474.5 130.1 474.8 129.8C468.3 141.2 461.8 152.5 455.3 163.9C447.6 177.5 440 191.1 432.7 205C430.1 209.9 427.7 214.9 425.2 219.8C425 220.3 424.7 220.8 424.4 221.2C424.3 221 424.1 220.9 423.9 221.1Z" fill="white"/>
<path d="M461.4 121.8C455.5 131.7 449.2 141.2 442 150.2C440.2 152.4 438.4 154.7 436.3 156.6C436.3 156.3 436.4 155.9 436 155.8C439.7 147.4 444.3 139.5 449.9 132.2C453 128.3 456.3 124.6 460.3 121.6C460.7 121.6 461.1 121.7 461.4 121.8Z" fill="white"/>
</svg>
